<svg xmlns="http://www.w3.org/2000/svg" xmlns:xlink="http://www.w3.org/1999/xlink" width="800" zoomAndPan="magnify" viewBox="0 0 600 1439.999935" height="1920" preserveAspectRatio="xMidYMid meet" version="1.0"><defs><g/><clipPath id="fdc723ede4"><path d="M 191.777344 65.695312 L 429 65.695312 L 429 208.261719 L 191.777344 208.261719 Z M 191.777344 65.695312 " clip-rule="nonzero"/></clipPath><clipPath id="b001291130"><path d="M 204.535156 65.695312 L 415.71875 65.695312 C 419.101562 65.695312 422.347656 67.039062 424.738281 69.433594 C 427.132812 71.828125 428.476562 75.070312 428.476562 78.457031 L 428.476562 195.503906 C 428.476562 198.886719 427.132812 202.132812 424.738281 204.523438 C 422.347656 206.917969 419.101562 208.261719 415.71875 208.261719 L 204.535156 208.261719 C 201.152344 208.261719 197.90625 206.917969 195.515625 204.523438 C 193.121094 202.132812 191.777344 198.886719 191.777344 195.503906 L 191.777344 78.457031 C 191.777344 75.070312 193.121094 71.828125 195.515625 69.433594 C 197.90625 67.039062 201.152344 65.695312 204.535156 65.695312 Z M 204.535156 65.695312 " clip-rule="nonzero"/></clipPath><clipPath id="341f0ced44"><path d="M 0.777344 0.695312 L 237.640625 0.695312 L 237.640625 143.261719 L 0.777344 143.261719 Z M 0.777344 0.695312 " clip-rule="nonzero"/></clipPath><clipPath id="e9471cfb7d"><path d="M 13.535156 0.695312 L 224.71875 0.695312 C 228.101562 0.695312 231.347656 2.039062 233.738281 4.433594 C 236.132812 6.828125 237.476562 10.070312 237.476562 13.457031 L 237.476562 130.503906 C 237.476562 133.886719 236.132812 137.132812 233.738281 139.523438 C 231.347656 141.917969 228.101562 143.261719 224.71875 143.261719 L 13.535156 143.261719 C 10.152344 143.261719 6.90625 141.917969 4.515625 139.523438 C 2.121094 137.132812 0.777344 133.886719 0.777344 130.503906 L 0.777344 13.457031 C 0.777344 10.070312 2.121094 6.828125 4.515625 4.433594 C 6.90625 2.039062 10.152344 0.695312 13.535156 0.695312 Z M 13.535156 0.695312 " clip-rule="nonzero"/></clipPath><clipPath id="94487b8212"><rect x="0" width="238" y="0" height="144"/></clipPath><clipPath id="776aa5a67e"><path d="M 191.777344 286.683594 L 429 286.683594 L 429 429.25 L 191.777344 429.25 Z M 191.777344 286.683594 " clip-rule="nonzero"/></clipPath><clipPath id="45dfbfdd2c"><path d="M 204.535156 286.683594 L 415.71875 286.683594 C 419.101562 286.683594 422.347656 288.027344 424.738281 290.421875 C 427.132812 292.8125 428.476562 296.058594 428.476562 299.445312 L 428.476562 416.492188 C 428.476562 419.875 427.132812 423.121094 424.738281 425.511719 C 422.347656 427.90625 419.101562 429.25 415.71875 429.25 L 204.535156 429.25 C 201.152344 429.25 197.90625 427.90625 195.515625 425.511719 C 193.121094 423.121094 191.777344 419.875 191.777344 416.492188 L 191.777344 299.445312 C 191.777344 296.058594 193.121094 292.8125 195.515625 290.421875 C 197.90625 288.027344 201.152344 286.683594 204.535156 286.683594 Z M 204.535156 286.683594 " clip-rule="nonzero"/></clipPath><clipPath id="524da4bc6c"><path d="M 0.777344 0.683594 L 237.640625 0.683594 L 237.640625 143.25 L 0.777344 143.25 Z M 0.777344 0.683594 " clip-rule="nonzero"/></clipPath><clipPath id="64f2266846"><path d="M 13.535156 0.683594 L 224.71875 0.683594 C 228.101562 0.683594 231.347656 2.027344 233.738281 4.421875 C 236.132812 6.8125 237.476562 10.058594 237.476562 13.445312 L 237.476562 130.492188 C 237.476562 133.875 236.132812 137.121094 233.738281 139.511719 C 231.347656 141.90625 228.101562 143.25 224.71875 143.25 L 13.535156 143.25 C 10.152344 143.25 6.90625 141.90625 4.515625 139.511719 C 2.121094 137.121094 0.777344 133.875 0.777344 130.492188 L 0.777344 13.445312 C 0.777344 10.058594 2.121094 6.8125 4.515625 4.421875 C 6.90625 2.027344 10.152344 0.683594 13.535156 0.683594 Z M 13.535156 0.683594 " clip-rule="nonzero"/></clipPath><clipPath id="0a1f0851bc"><rect x="0" width="238" y="0" height="144"/></clipPath><clipPath id="a368a6f283"><path d="M 194.769531 506.449219 L 432 506.449219 L 432 649.015625 L 194.769531 649.015625 Z M 194.769531 506.449219 " clip-rule="nonzero"/></clipPath><clipPath id="8d050ca297"><path d="M 207.53125 506.449219 L 418.710938 506.449219 C 422.09375 506.449219 425.339844 507.792969 427.734375 510.1875 C 430.125 512.578125 431.46875 515.824219 431.46875 519.207031 L 431.46875 636.253906 C 431.46875 639.640625 430.125 642.882812 427.734375 645.277344 C 425.339844 647.671875 422.09375 649.015625 418.710938 649.015625 L 207.53125 649.015625 C 204.144531 649.015625 200.898438 647.671875 198.507812 645.277344 C 196.113281 642.882812 194.769531 639.640625 194.769531 636.253906 L 194.769531 519.207031 C 194.769531 515.824219 196.113281 512.578125 198.507812 510.1875 C 200.898438 507.792969 204.144531 506.449219 207.53125 506.449219 Z M 207.53125 506.449219 " clip-rule="nonzero"/></clipPath><clipPath id="04cee131ad"><path d="M 0.769531 0.449219 L 237.519531 0.449219 L 237.519531 143.015625 L 0.769531 143.015625 Z M 0.769531 0.449219 " clip-rule="nonzero"/></clipPath><clipPath id="58d68e0976"><path d="M 13.53125 0.449219 L 224.710938 0.449219 C 228.09375 0.449219 231.339844 1.792969 233.734375 4.1875 C 236.125 6.578125 237.46875 9.824219 237.46875 13.207031 L 237.46875 130.253906 C 237.46875 133.640625 236.125 136.882812 233.734375 139.277344 C 231.339844 141.671875 228.09375 143.015625 224.710938 143.015625 L 13.53125 143.015625 C 10.144531 143.015625 6.898438 141.671875 4.507812 139.277344 C 2.113281 136.882812 0.769531 133.640625 0.769531 130.253906 L 0.769531 13.207031 C 0.769531 9.824219 2.113281 6.578125 4.507812 4.1875 C 6.898438 1.792969 10.144531 0.449219 13.53125 0.449219 Z M 13.53125 0.449219 " clip-rule="nonzero"/></clipPath><clipPath id="7c54d54dc3"><rect x="0" width="238" y="0" height="144"/></clipPath><clipPath id="9943c76411"><path d="M 144.472656 717.007812 L 479.722656 717.007812 L 479.722656 859.574219 L 144.472656 859.574219 Z M 144.472656 717.007812 " clip-rule="nonzero"/></clipPath><clipPath id="41d8219d56"><path d="M 157.230469 717.007812 L 466.429688 717.007812 C 469.816406 717.007812 473.0625 718.351562 475.453125 720.746094 C 477.847656 723.136719 479.191406 726.382812 479.191406 729.769531 L 479.191406 846.8125 C 479.191406 850.199219 477.847656 853.445312 475.453125 855.835938 C 473.0625 858.230469 469.816406 859.574219 466.429688 859.574219 L 157.230469 859.574219 C 153.847656 859.574219 150.601562 858.230469 148.210938 855.835938 C 145.816406 853.445312 144.472656 850.199219 144.472656 846.8125 L 144.472656 729.769531 C 144.472656 726.382812 145.816406 723.136719 148.210938 720.746094 C 150.601562 718.351562 153.847656 717.007812 157.230469 717.007812 Z M 157.230469 717.007812 " clip-rule="nonzero"/></clipPath><clipPath id="b19e821f68"><path d="M 0.472656 0.0078125 L 335.28125 0.0078125 L 335.28125 142.574219 L 0.472656 142.574219 Z M 0.472656 0.0078125 " clip-rule="nonzero"/></clipPath><clipPath id="a66992ac41"><path d="M 13.230469 0.0078125 L 322.429688 0.0078125 C 325.816406 0.0078125 329.0625 1.351562 331.453125 3.746094 C 333.847656 6.136719 335.191406 9.382812 335.191406 12.769531 L 335.191406 129.8125 C 335.191406 133.199219 333.847656 136.445312 331.453125 138.835938 C 329.0625 141.230469 325.816406 142.574219 322.429688 142.574219 L 13.230469 142.574219 C 9.847656 142.574219 6.601562 141.230469 4.210938 138.835938 C 1.816406 136.445312 0.472656 133.199219 0.472656 129.8125 L 0.472656 12.769531 C 0.472656 9.382812 1.816406 6.136719 4.210938 3.746094 C 6.601562 1.351562 9.847656 0.0078125 13.230469 0.0078125 Z M 13.230469 0.0078125 " clip-rule="nonzero"/></clipPath><clipPath id="269394f2da"><rect x="0" width="336" y="0" height="143"/></clipPath><clipPath id="79a590d284"><path d="M 193.480469 1160.480469 L 430.71875 1160.480469 L 430.71875 1303.046875 L 193.480469 1303.046875 Z M 193.480469 1160.480469 " clip-rule="nonzero"/></clipPath><clipPath id="821a672610"><path d="M 206.242188 1160.480469 L 417.421875 1160.480469 C 420.804688 1160.480469 424.050781 1161.824219 426.445312 1164.21875 C 428.835938 1166.609375 430.183594 1169.855469 430.183594 1173.238281 L 430.183594 1290.285156 C 430.183594 1293.671875 428.835938 1296.917969 426.445312 1299.308594 C 424.050781 1301.703125 420.804688 1303.046875 417.421875 1303.046875 L 206.242188 1303.046875 C 202.855469 1303.046875 199.613281 1301.703125 197.21875 1299.308594 C 194.824219 1296.917969 193.480469 1293.671875 193.480469 1290.285156 L 193.480469 1173.238281 C 193.480469 1169.855469 194.824219 1166.609375 197.21875 1164.21875 C 199.613281 1161.824219 202.855469 1160.480469 206.242188 1160.480469 Z M 206.242188 1160.480469 " clip-rule="nonzero"/></clipPath><clipPath id="ce1eed3c92"><path d="M 0.480469 0.480469 L 237.320312 0.480469 L 237.320312 143.046875 L 0.480469 143.046875 Z M 0.480469 0.480469 " clip-rule="nonzero"/></clipPath><clipPath id="f50ab8518e"><path d="M 13.242188 0.480469 L 224.421875 0.480469 C 227.804688 0.480469 231.050781 1.824219 233.445312 4.21875 C 235.835938 6.609375 237.183594 9.855469 237.183594 13.238281 L 237.183594 130.285156 C 237.183594 133.671875 235.835938 136.917969 233.445312 139.308594 C 231.050781 141.703125 227.804688 143.046875 224.421875 143.046875 L 13.242188 143.046875 C 9.855469 143.046875 6.613281 141.703125 4.21875 139.308594 C 1.824219 136.917969 0.480469 133.671875 0.480469 130.285156 L 0.480469 13.238281 C 0.480469 9.855469 1.824219 6.609375 4.21875 4.21875 C 6.613281 1.824219 9.855469 0.480469 13.242188 0.480469 Z M 13.242188 0.480469 " clip-rule="nonzero"/></clipPath><clipPath id="f8717081e8"><rect x="0" width="238" y="0" height="144"/></clipPath><clipPath id="dc76a69c58"><path d="M 165.394531 933.507812 L 458.320312 933.507812 L 458.320312 1076.074219 L 165.394531 1076.074219 Z M 165.394531 933.507812 " clip-rule="nonzero"/></clipPath><clipPath id="545e430a1a"><path d="M 178.152344 933.507812 L 445.511719 933.507812 C 448.894531 933.507812 452.140625 934.851562 454.53125 937.246094 C 456.925781 939.636719 458.269531 942.882812 458.269531 946.265625 L 458.269531 1063.3125 C 458.269531 1066.699219 456.925781 1069.941406 454.53125 1072.335938 C 452.140625 1074.730469 448.894531 1076.074219 445.511719 1076.074219 L 178.152344 1076.074219 C 174.769531 1076.074219 171.523438 1074.730469 169.128906 1072.335938 C 166.738281 1069.941406 165.394531 1066.699219 165.394531 1063.3125 L 165.394531 946.265625 C 165.394531 942.882812 166.738281 939.636719 169.128906 937.246094 C 171.523438 934.851562 174.769531 933.507812 178.152344 933.507812 Z M 178.152344 933.507812 " clip-rule="nonzero"/></clipPath><clipPath id="89ab878e1d"><path d="M 0.394531 0.507812 L 293.320312 0.507812 L 293.320312 143.074219 L 0.394531 143.074219 Z M 0.394531 0.507812 " clip-rule="nonzero"/></clipPath><clipPath id="a5c95d9fce"><path d="M 13.152344 0.507812 L 280.511719 0.507812 C 283.894531 0.507812 287.140625 1.851562 289.53125 4.246094 C 291.925781 6.636719 293.269531 9.882812 293.269531 13.265625 L 293.269531 130.3125 C 293.269531 133.699219 291.925781 136.941406 289.53125 139.335938 C 287.140625 141.730469 283.894531 143.074219 280.511719 143.074219 L 13.152344 143.074219 C 9.769531 143.074219 6.523438 141.730469 4.128906 139.335938 C 1.738281 136.941406 0.394531 133.699219 0.394531 130.3125 L 0.394531 13.265625 C 0.394531 9.882812 1.738281 6.636719 4.128906 4.246094 C 6.523438 1.851562 9.769531 0.507812 13.152344 0.507812 Z M 13.152344 0.507812 " clip-rule="nonzero"/></clipPath><clipPath id="94912b3a00"><rect x="0" width="294" y="0" height="144"/></clipPath></defs><g clip-path="url(#fdc723ede4)"><g clip-path="url(#b001291130)"><g transform="matrix(1, 0, 0, 1, 191, 65)"><g clip-path="url(#94487b8212)"><g clip-path="url(#341f0ced44)"><g clip-path="url(#e9471cfb7d)"><path fill="#d9d9d9" d="M 0.777344 0.695312 L 237.457031 0.695312 L 237.457031 143.261719 L 0.777344 143.261719 Z M 0.777344 0.695312 " fill-opacity="1" fill-rule="nonzero"/></g></g></g></g></g></g><g fill="#000000" fill-opacity="1"><g transform="translate(258.117223, 147.446233)"><g><path d="M 18.328125 0 L 15.953125 0 L 15.953125 -9.625 L 5.1875 -9.625 L 5.1875 0 L 2.8125 0 L 2.8125 -20.453125 L 5.1875 -20.453125 L 5.1875 -11.75 L 15.953125 -11.75 L 15.953125 -20.453125 L 18.328125 -20.453125 Z M 18.328125 0 "/></g></g></g><g fill="#000000" fill-opacity="1"><g transform="translate(279.239433, 147.446233)"><g><path d="M 11.890625 0 L 11.421875 -2.1875 L 11.3125 -2.1875 C 10.550781 -1.21875 9.789062 -0.5625 9.03125 -0.21875 C 8.269531 0.113281 7.320312 0.28125 6.1875 0.28125 C 4.664062 0.28125 3.472656 -0.109375 2.609375 -0.890625 C 1.742188 -1.671875 1.3125 -2.785156 1.3125 -4.234375 C 1.3125 -7.328125 3.785156 -8.953125 8.734375 -9.109375 L 11.34375 -9.1875 L 11.34375 -10.140625 C 11.34375 -11.335938 11.082031 -12.222656 10.5625 -12.796875 C 10.050781 -13.367188 9.222656 -13.65625 8.078125 -13.65625 C 6.804688 -13.65625 5.363281 -13.265625 3.75 -12.484375 L 3.03125 -14.265625 C 3.789062 -14.671875 4.617188 -14.988281 5.515625 -15.21875 C 6.410156 -15.457031 7.3125 -15.578125 8.21875 -15.578125 C 10.050781 -15.578125 11.40625 -15.171875 12.28125 -14.359375 C 13.164062 -13.546875 13.609375 -12.242188 13.609375 -10.453125 L 13.609375 0 Z M 6.640625 -1.640625 C 8.085938 -1.640625 9.222656 -2.035156 10.046875 -2.828125 C 10.867188 -3.617188 11.28125 -4.726562 11.28125 -6.15625 L 11.28125 -7.53125 L 8.96875 -7.4375 C 7.113281 -7.375 5.78125 -7.085938 4.96875 -6.578125 C 4.15625 -6.066406 3.75 -5.273438 3.75 -4.203125 C 3.75 -3.367188 4 -2.734375 4.5 -2.296875 C 5.007812 -1.859375 5.722656 -1.640625 6.640625 -1.640625 Z M 6.640625 -1.640625 "/></g></g></g><g fill="#000000" fill-opacity="1"><g transform="translate(295.16147, 147.446233)"><g><path d="M 4.5 -15.328125 L 4.5 -9.734375 C 4.5 -7.941406 5.519531 -7.046875 7.5625 -7.046875 C 8.414062 -7.046875 9.226562 -7.175781 10 -7.4375 C 10.769531 -7.695312 11.644531 -8.140625 12.625 -8.765625 L 12.625 -15.328125 L 14.953125 -15.328125 L 14.953125 0 L 12.625 0 L 12.625 -6.9375 C 11.644531 -6.257812 10.738281 -5.785156 9.90625 -5.515625 C 9.070312 -5.242188 8.128906 -5.109375 7.078125 -5.109375 C 5.546875 -5.109375 4.347656 -5.507812 3.484375 -6.3125 C 2.617188 -7.113281 2.1875 -8.195312 2.1875 -9.5625 L 2.1875 -15.328125 Z M 4.5 -15.328125 "/></g></g></g><g fill="#000000" fill-opacity="1"><g transform="translate(312.565277, 147.446233)"><g><path d="M 11.890625 0 L 11.421875 -2.1875 L 11.3125 -2.1875 C 10.550781 -1.21875 9.789062 -0.5625 9.03125 -0.21875 C 8.269531 0.113281 7.320312 0.28125 6.1875 0.28125 C 4.664062 0.28125 3.472656 -0.109375 2.609375 -0.890625 C 1.742188 -1.671875 1.3125 -2.785156 1.3125 -4.234375 C 1.3125 -7.328125 3.785156 -8.953125 8.734375 -9.109375 L 11.34375 -9.1875 L 11.34375 -10.140625 C 11.34375 -11.335938 11.082031 -12.222656 10.5625 -12.796875 C 10.050781 -13.367188 9.222656 -13.65625 8.078125 -13.65625 C 6.804688 -13.65625 5.363281 -13.265625 3.75 -12.484375 L 3.03125 -14.265625 C 3.789062 -14.671875 4.617188 -14.988281 5.515625 -15.21875 C 6.410156 -15.457031 7.3125 -15.578125 8.21875 -15.578125 C 10.050781 -15.578125 11.40625 -15.171875 12.28125 -14.359375 C 13.164062 -13.546875 13.609375 -12.242188 13.609375 -10.453125 L 13.609375 0 Z M 6.640625 -1.640625 C 8.085938 -1.640625 9.222656 -2.035156 10.046875 -2.828125 C 10.867188 -3.617188 11.28125 -4.726562 11.28125 -6.15625 L 11.28125 -7.53125 L 8.96875 -7.4375 C 7.113281 -7.375 5.78125 -7.085938 4.96875 -6.578125 C 4.15625 -6.066406 3.75 -5.273438 3.75 -4.203125 C 3.75 -3.367188 4 -2.734375 4.5 -2.296875 C 5.007812 -1.859375 5.722656 -1.640625 6.640625 -1.640625 Z M 6.640625 -1.640625 "/></g></g></g><g fill="#000000" fill-opacity="1"><g transform="translate(328.487315, 147.446233)"><g><path d="M 13.890625 0 L 11.53125 0 L 11.53125 -13.34375 L 6.9375 -13.34375 C 6.6875 -10.019531 6.335938 -7.382812 5.890625 -5.4375 C 5.441406 -3.488281 4.859375 -2.0625 4.140625 -1.15625 C 3.429688 -0.25 2.523438 0.203125 1.421875 0.203125 C 0.921875 0.203125 0.519531 0.144531 0.21875 0.03125 L 0.21875 -1.6875 C 0.425781 -1.632812 0.660156 -1.609375 0.921875 -1.609375 C 1.992188 -1.609375 2.847656 -2.738281 3.484375 -5 C 4.117188 -7.269531 4.597656 -10.710938 4.921875 -15.328125 L 13.890625 -15.328125 Z M 13.890625 0 "/></g></g></g><g fill="#000000" fill-opacity="1"><g transform="translate(344.828721, 147.446233)"><g><path d="M 15.6875 -7.671875 C 15.6875 -5.179688 15.054688 -3.234375 13.796875 -1.828125 C 12.546875 -0.421875 10.8125 0.28125 8.59375 0.28125 C 7.21875 0.28125 6 -0.0390625 4.9375 -0.6875 C 3.875 -1.332031 3.050781 -2.253906 2.46875 -3.453125 C 1.894531 -4.660156 1.609375 -6.066406 1.609375 -7.671875 C 1.609375 -10.171875 2.234375 -12.117188 3.484375 -13.515625 C 4.734375 -14.910156 6.46875 -15.609375 8.6875 -15.609375 C 10.832031 -15.609375 12.535156 -14.894531 13.796875 -13.46875 C 15.054688 -12.039062 15.6875 -10.109375 15.6875 -7.671875 Z M 4.015625 -7.671875 C 4.015625 -5.710938 4.40625 -4.222656 5.1875 -3.203125 C 5.96875 -2.179688 7.117188 -1.671875 8.640625 -1.671875 C 10.160156 -1.671875 11.3125 -2.179688 12.09375 -3.203125 C 12.882812 -4.222656 13.28125 -5.710938 13.28125 -7.671875 C 13.28125 -9.617188 12.882812 -11.097656 12.09375 -12.109375 C 11.3125 -13.128906 10.148438 -13.640625 8.609375 -13.640625 C 7.085938 -13.640625 5.941406 -13.140625 5.171875 -12.140625 C 4.398438 -11.140625 4.015625 -9.648438 4.015625 -7.671875 Z M 4.015625 -7.671875 "/></g></g></g><path stroke-linecap="butt" transform="matrix(0, 0.75, -0.75, 0, 314.619421, 226.221083)" fill="none" stroke-linejoin="miter" d="M 0.00209798 3.99777 L 34.684393 3.99777 " stroke="#000000" stroke-width="8" stroke-opacity="1" stroke-miterlimit="4"/><path stroke-linecap="round" transform="matrix(0, 0.75, -0.75, 0, 314.619421, 226.221083)" fill-opacity="1" fill="#000000" fill-rule="nonzero" stroke-linejoin="round" d="M 36.684393 -8.002232 L 52.684394 3.99777 L 36.684393 15.997771 Z M 36.684393 -8.002232 " stroke="#000000" stroke-width="8" stroke-opacity="1" stroke-miterlimit="4"/><g clip-path="url(#776aa5a67e)"><g clip-path="url(#45dfbfdd2c)"><g transform="matrix(1, 0, 0, 1, 191, 286)"><g clip-path="url(#0a1f0851bc)"><g clip-path="url(#524da4bc6c)"><g clip-path="url(#64f2266846)"><path fill="#88baff" d="M 0.777344 0.683594 L 237.457031 0.683594 L 237.457031 143.25 L 0.777344 143.25 Z M 0.777344 0.683594 " fill-opacity="1" fill-rule="nonzero"/></g></g></g></g></g></g><g fill="#000000" fill-opacity="1"><g transform="translate(211.429727, 348.184287)"><g><path d="M 18.328125 0 L 15.953125 0 L 15.953125 -9.625 L 5.1875 -9.625 L 5.1875 0 L 2.8125 0 L 2.8125 -20.453125 L 5.1875 -20.453125 L 5.1875 -11.75 L 15.953125 -11.75 L 15.953125 -20.453125 L 18.328125 -20.453125 Z M 18.328125 0 "/></g></g></g><g fill="#000000" fill-opacity="1"><g transform="translate(232.551937, 348.184287)"><g><path d="M 11.890625 0 L 11.421875 -2.1875 L 11.3125 -2.1875 C 10.550781 -1.21875 9.789062 -0.5625 9.03125 -0.21875 C 8.269531 0.113281 7.320312 0.28125 6.1875 0.28125 C 4.664062 0.28125 3.472656 -0.109375 2.609375 -0.890625 C 1.742188 -1.671875 1.3125 -2.785156 1.3125 -4.234375 C 1.3125 -7.328125 3.785156 -8.953125 8.734375 -9.109375 L 11.34375 -9.1875 L 11.34375 -10.140625 C 11.34375 -11.335938 11.082031 -12.222656 10.5625 -12.796875 C 10.050781 -13.367188 9.222656 -13.65625 8.078125 -13.65625 C 6.804688 -13.65625 5.363281 -13.265625 3.75 -12.484375 L 3.03125 -14.265625 C 3.789062 -14.671875 4.617188 -14.988281 5.515625 -15.21875 C 6.410156 -15.457031 7.3125 -15.578125 8.21875 -15.578125 C 10.050781 -15.578125 11.40625 -15.171875 12.28125 -14.359375 C 13.164062 -13.546875 13.609375 -12.242188 13.609375 -10.453125 L 13.609375 0 Z M 6.640625 -1.640625 C 8.085938 -1.640625 9.222656 -2.035156 10.046875 -2.828125 C 10.867188 -3.617188 11.28125 -4.726562 11.28125 -6.15625 L 11.28125 -7.53125 L 8.96875 -7.4375 C 7.113281 -7.375 5.78125 -7.085938 4.96875 -6.578125 C 4.15625 -6.066406 3.75 -5.273438 3.75 -4.203125 C 3.75 -3.367188 4 -2.734375 4.5 -2.296875 C 5.007812 -1.859375 5.722656 -1.640625 6.640625 -1.640625 Z M 6.640625 -1.640625 "/></g></g></g><g fill="#000000" fill-opacity="1"><g transform="translate(248.473974, 348.184287)"><g><path d="M 13.890625 0 L 11.53125 0 L 11.53125 -13.34375 L 6.9375 -13.34375 C 6.6875 -10.019531 6.335938 -7.382812 5.890625 -5.4375 C 5.441406 -3.488281 4.859375 -2.0625 4.140625 -1.15625 C 3.429688 -0.25 2.523438 0.203125 1.421875 0.203125 C 0.921875 0.203125 0.519531 0.144531 0.21875 0.03125 L 0.21875 -1.6875 C 0.425781 -1.632812 0.660156 -1.609375 0.921875 -1.609375 C 1.992188 -1.609375 2.847656 -2.738281 3.484375 -5 C 4.117188 -7.269531 4.597656 -10.710938 4.921875 -15.328125 L 13.890625 -15.328125 Z M 13.890625 0 "/></g></g></g><g fill="#000000" fill-opacity="1"><g transform="translate(264.815381, 348.184287)"><g><path d="M 4.640625 -15.328125 L 4.640625 -5.609375 L 4.546875 -3.0625 L 4.5 -2.265625 L 12.796875 -15.328125 L 15.6875 -15.328125 L 15.6875 0 L 13.515625 0 L 13.515625 -9.375 L 13.5625 -11.21875 L 13.640625 -13.03125 L 5.359375 0 L 2.46875 0 L 2.46875 -15.328125 Z M 4.640625 -15.328125 "/></g></g></g><g fill="#000000" fill-opacity="1"><g transform="translate(282.960067, 348.184287)"><g><path d="M 12.796875 -13.34375 L 7.8125 -13.34375 L 7.8125 0 L 5.5 0 L 5.5 -13.34375 L 0.578125 -13.34375 L 0.578125 -15.328125 L 12.796875 -15.328125 Z M 12.796875 -13.34375 "/></g></g></g><g fill="#000000" fill-opacity="1"><g transform="translate(296.32395, 348.184287)"><g><path d="M 4.78125 -8.984375 L 9.515625 -8.984375 C 13.429688 -8.984375 15.390625 -7.546875 15.390625 -4.671875 C 15.390625 -3.160156 14.878906 -2.003906 13.859375 -1.203125 C 12.835938 -0.398438 11.34375 0 9.375 0 L 2.46875 0 L 2.46875 -15.328125 L 4.78125 -15.328125 Z M 4.78125 -7 L 4.78125 -1.9375 L 9.265625 -1.9375 C 10.492188 -1.9375 11.429688 -2.148438 12.078125 -2.578125 C 12.734375 -3.015625 13.0625 -3.664062 13.0625 -4.53125 C 13.0625 -5.375 12.757812 -5.992188 12.15625 -6.390625 C 11.550781 -6.796875 10.5625 -7 9.1875 -7 Z M 4.78125 -7 "/></g></g></g><g fill="#000000" fill-opacity="1"><g transform="translate(313.266445, 348.184287)"><g/></g></g><g fill="#000000" fill-opacity="1"><g transform="translate(320.70325, 348.184287)"><g><path d="M 14.890625 -11.484375 C 14.890625 -10.484375 14.601562 -9.722656 14.03125 -9.203125 C 13.457031 -8.691406 12.65625 -8.347656 11.625 -8.171875 L 11.625 -8.046875 C 12.925781 -7.867188 13.878906 -7.484375 14.484375 -6.890625 C 15.085938 -6.304688 15.390625 -5.5 15.390625 -4.46875 C 15.390625 -3.039062 14.863281 -1.9375 13.8125 -1.15625 C 12.757812 -0.382812 11.226562 0 9.21875 0 L 2.46875 0 L 2.46875 -15.328125 L 9.1875 -15.328125 C 12.988281 -15.328125 14.890625 -14.046875 14.890625 -11.484375 Z M 13.0625 -4.609375 C 13.0625 -5.441406 12.742188 -6.046875 12.109375 -6.421875 C 11.484375 -6.804688 10.441406 -7 8.984375 -7 L 4.78125 -7 L 4.78125 -1.9375 L 9.046875 -1.9375 C 11.722656 -1.9375 13.0625 -2.828125 13.0625 -4.609375 Z M 12.625 -11.25 C 12.625 -12 12.335938 -12.53125 11.765625 -12.84375 C 11.191406 -13.15625 10.320312 -13.3125 9.15625 -13.3125 L 4.78125 -13.3125 L 4.78125 -8.984375 L 8.71875 -8.984375 C 10.144531 -8.984375 11.148438 -9.160156 11.734375 -9.515625 C 12.328125 -9.878906 12.625 -10.457031 12.625 -11.25 Z M 12.625 -11.25 "/></g></g></g><g fill="#000000" fill-opacity="1"><g transform="translate(336.988741, 348.184287)"><g><path d="M 15.6875 -7.671875 C 15.6875 -5.179688 15.054688 -3.234375 13.796875 -1.828125 C 12.546875 -0.421875 10.8125 0.28125 8.59375 0.28125 C 7.21875 0.28125 6 -0.0390625 4.9375 -0.6875 C 3.875 -1.332031 3.050781 -2.253906 2.46875 -3.453125 C 1.894531 -4.660156 1.609375 -6.066406 1.609375 -7.671875 C 1.609375 -10.171875 2.234375 -12.117188 3.484375 -13.515625 C 4.734375 -14.910156 6.46875 -15.609375 8.6875 -15.609375 C 10.832031 -15.609375 12.535156 -14.894531 13.796875 -13.46875 C 15.054688 -12.039062 15.6875 -10.109375 15.6875 -7.671875 Z M 4.015625 -7.671875 C 4.015625 -5.710938 4.40625 -4.222656 5.1875 -3.203125 C 5.96875 -2.179688 7.117188 -1.671875 8.640625 -1.671875 C 10.160156 -1.671875 11.3125 -2.179688 12.09375 -3.203125 C 12.882812 -4.222656 13.28125 -5.710938 13.28125 -7.671875 C 13.28125 -9.617188 12.882812 -11.097656 12.09375 -12.109375 C 11.3125 -13.128906 10.148438 -13.640625 8.609375 -13.640625 C 7.085938 -13.640625 5.941406 -13.140625 5.171875 -12.140625 C 4.398438 -11.140625 4.015625 -9.648438 4.015625 -7.671875 Z M 4.015625 -7.671875 "/></g></g></g><g fill="#000000" fill-opacity="1"><g transform="translate(354.280716, 348.184287)"><g><path d="M 15.78125 5.296875 L 13.515625 5.296875 L 13.515625 0 L 2.8125 0 L 2.8125 5.296875 L 0.578125 5.296875 L 0.578125 -2 L 1.78125 -2 C 3.03125 -3.695312 4.007812 -5.6875 4.71875 -7.96875 C 5.425781 -10.25 5.789062 -12.703125 5.8125 -15.328125 L 13.578125 -15.328125 L 13.578125 -2 L 15.78125 -2 Z M 11.34375 -2 L 11.34375 -13.5 L 7.90625 -13.5 C 7.78125 -11.425781 7.378906 -9.328125 6.703125 -7.203125 C 6.023438 -5.085938 5.1875 -3.351562 4.1875 -2 Z M 11.34375 -2 "/></g></g></g><g fill="#000000" fill-opacity="1"><g transform="translate(370.65008, 348.184287)"><g><path d="M 0.03125 -15.328125 L 2.515625 -15.328125 L 5.875 -6.59375 C 6.613281 -4.59375 7.070312 -3.148438 7.25 -2.265625 L 7.359375 -2.265625 C 7.472656 -2.742188 7.722656 -3.554688 8.109375 -4.703125 C 8.503906 -5.859375 9.773438 -9.398438 11.921875 -15.328125 L 14.40625 -15.328125 L 7.8125 2.125 C 7.164062 3.851562 6.40625 5.078125 5.53125 5.796875 C 4.65625 6.515625 3.585938 6.875 2.328125 6.875 C 1.617188 6.875 0.914062 6.796875 0.21875 6.640625 L 0.21875 4.78125 C 0.738281 4.894531 1.3125 4.953125 1.9375 4.953125 C 3.53125 4.953125 4.671875 4.054688 5.359375 2.265625 L 6.203125 0.078125 Z M 0.03125 -15.328125 "/></g></g></g><g fill="#000000" fill-opacity="1"><g transform="translate(385.076364, 348.184287)"><g/></g></g><g fill="#000000" fill-opacity="1"><g transform="translate(392.513169, 348.184287)"><g><path d="M 14.890625 -11.484375 C 14.890625 -10.484375 14.601562 -9.722656 14.03125 -9.203125 C 13.457031 -8.691406 12.65625 -8.347656 11.625 -8.171875 L 11.625 -8.046875 C 12.925781 -7.867188 13.878906 -7.484375 14.484375 -6.890625 C 15.085938 -6.304688 15.390625 -5.5 15.390625 -4.46875 C 15.390625 -3.039062 14.863281 -1.9375 13.8125 -1.15625 C 12.757812 -0.382812 11.226562 0 9.21875 0 L 2.46875 0 L 2.46875 -15.328125 L 9.1875 -15.328125 C 12.988281 -15.328125 14.890625 -14.046875 14.890625 -11.484375 Z M 13.0625 -4.609375 C 13.0625 -5.441406 12.742188 -6.046875 12.109375 -6.421875 C 11.484375 -6.804688 10.441406 -7 8.984375 -7 L 4.78125 -7 L 4.78125 -1.9375 L 9.046875 -1.9375 C 11.722656 -1.9375 13.0625 -2.828125 13.0625 -4.609375 Z M 12.625 -11.25 C 12.625 -12 12.335938 -12.53125 11.765625 -12.84375 C 11.191406 -13.15625 10.320312 -13.3125 9.15625 -13.3125 L 4.78125 -13.3125 L 4.78125 -8.984375 L 8.71875 -8.984375 C 10.144531 -8.984375 11.148438 -9.160156 11.734375 -9.515625 C 12.328125 -9.878906 12.625 -10.457031 12.625 -11.25 Z M 12.625 -11.25 "/></g></g></g><g fill="#000000" fill-opacity="1"><g transform="translate(258.808629, 387.934283)"><g><path d="M 4.5 -15.328125 L 4.5 -9.734375 C 4.5 -7.941406 5.519531 -7.046875 7.5625 -7.046875 C 8.414062 -7.046875 9.226562 -7.175781 10 -7.4375 C 10.769531 -7.695312 11.644531 -8.140625 12.625 -8.765625 L 12.625 -15.328125 L 14.953125 -15.328125 L 14.953125 0 L 12.625 0 L 12.625 -6.9375 C 11.644531 -6.257812 10.738281 -5.785156 9.90625 -5.515625 C 9.070312 -5.242188 8.128906 -5.109375 7.078125 -5.109375 C 5.546875 -5.109375 4.347656 -5.507812 3.484375 -6.3125 C 2.617188 -7.113281 2.1875 -8.195312 2.1875 -9.5625 L 2.1875 -15.328125 Z M 4.5 -15.328125 "/></g></g></g><g fill="#000000" fill-opacity="1"><g transform="translate(276.212436, 387.934283)"><g><path d="M 11.890625 0 L 11.421875 -2.1875 L 11.3125 -2.1875 C 10.550781 -1.21875 9.789062 -0.5625 9.03125 -0.21875 C 8.269531 0.113281 7.320312 0.28125 6.1875 0.28125 C 4.664062 0.28125 3.472656 -0.109375 2.609375 -0.890625 C 1.742188 -1.671875 1.3125 -2.785156 1.3125 -4.234375 C 1.3125 -7.328125 3.785156 -8.953125 8.734375 -9.109375 L 11.34375 -9.1875 L 11.34375 -10.140625 C 11.34375 -11.335938 11.082031 -12.222656 10.5625 -12.796875 C 10.050781 -13.367188 9.222656 -13.65625 8.078125 -13.65625 C 6.804688 -13.65625 5.363281 -13.265625 3.75 -12.484375 L 3.03125 -14.265625 C 3.789062 -14.671875 4.617188 -14.988281 5.515625 -15.21875 C 6.410156 -15.457031 7.3125 -15.578125 8.21875 -15.578125 C 10.050781 -15.578125 11.40625 -15.171875 12.28125 -14.359375 C 13.164062 -13.546875 13.609375 -12.242188 13.609375 -10.453125 L 13.609375 0 Z M 6.640625 -1.640625 C 8.085938 -1.640625 9.222656 -2.035156 10.046875 -2.828125 C 10.867188 -3.617188 11.28125 -4.726562 11.28125 -6.15625 L 11.28125 -7.53125 L 8.96875 -7.4375 C 7.113281 -7.375 5.78125 -7.085938 4.96875 -6.578125 C 4.15625 -6.066406 3.75 -5.273438 3.75 -4.203125 C 3.75 -3.367188 4 -2.734375 4.5 -2.296875 C 5.007812 -1.859375 5.722656 -1.640625 6.640625 -1.640625 Z M 6.640625 -1.640625 "/></g></g></g><g fill="#000000" fill-opacity="1"><g transform="translate(292.134473, 387.934283)"><g><path d="M 4.640625 -15.328125 L 4.640625 -5.609375 L 4.546875 -3.0625 L 4.5 -2.265625 L 12.796875 -15.328125 L 15.6875 -15.328125 L 15.6875 0 L 13.515625 0 L 13.515625 -9.375 L 13.5625 -11.21875 L 13.640625 -13.03125 L 5.359375 0 L 2.46875 0 L 2.46875 -15.328125 Z M 9.03125 -17.359375 C 7.300781 -17.359375 6.039062 -17.691406 5.25 -18.359375 C 4.457031 -19.023438 4.015625 -20.117188 3.921875 -21.640625 L 6.109375 -21.640625 C 6.191406 -20.671875 6.441406 -19.992188 6.859375 -19.609375 C 7.285156 -19.234375 8.023438 -19.046875 9.078125 -19.046875 C 10.035156 -19.046875 10.742188 -19.25 11.203125 -19.65625 C 11.671875 -20.070312 11.957031 -20.734375 12.0625 -21.640625 L 14.25 -21.640625 C 14.144531 -20.171875 13.675781 -19.085938 12.84375 -18.390625 C 12.007812 -17.703125 10.738281 -17.359375 9.03125 -17.359375 Z M 9.03125 -17.359375 "/></g></g></g><g fill="#000000" fill-opacity="1"><g transform="translate(310.27916, 387.934283)"><g><path d="M 4.78125 -15.328125 L 4.78125 -8.90625 L 13.375 -8.90625 L 13.375 -15.328125 L 15.6875 -15.328125 L 15.6875 0 L 13.375 0 L 13.375 -6.90625 L 4.78125 -6.90625 L 4.78125 0 L 2.46875 0 L 2.46875 -15.328125 Z M 4.78125 -15.328125 "/></g></g></g><g fill="#000000" fill-opacity="1"><g transform="translate(328.423846, 387.934283)"><g><path d="M 4.640625 -15.328125 L 4.640625 -5.609375 L 4.546875 -3.0625 L 4.5 -2.265625 L 12.796875 -15.328125 L 15.6875 -15.328125 L 15.6875 0 L 13.515625 0 L 13.515625 -9.375 L 13.5625 -11.21875 L 13.640625 -13.03125 L 5.359375 0 L 2.46875 0 L 2.46875 -15.328125 Z M 4.640625 -15.328125 "/></g></g></g><g fill="#000000" fill-opacity="1"><g transform="translate(346.568532, 387.934283)"><g><path d="M 11.390625 -15.328125 L 13.9375 -15.328125 L 7.328125 -7.921875 L 14.484375 0 L 11.78125 0 L 4.78125 -7.765625 L 4.78125 0 L 2.46875 0 L 2.46875 -15.328125 L 4.78125 -15.328125 L 4.78125 -7.875 Z M 11.390625 -15.328125 "/></g></g></g><g clip-path="url(#a368a6f283)"><g clip-path="url(#8d050ca297)"><g transform="matrix(1, 0, 0, 1, 194, 506)"><g clip-path="url(#7c54d54dc3)"><g clip-path="url(#04cee131ad)"><g clip-path="url(#58d68e0976)"><path fill="#febb5e" d="M 0.769531 0.449219 L 237.449219 0.449219 L 237.449219 143.015625 L 0.769531 143.015625 Z M 0.769531 0.449219 " fill-opacity="1" fill-rule="nonzero"/></g></g></g></g></g></g><g fill="#000000" fill-opacity="1"><g transform="translate(232.773802, 567.949035)"><g><path d="M 2.8125 -20.453125 L 8.59375 -20.453125 C 11.300781 -20.453125 13.257812 -20.046875 14.46875 -19.234375 C 15.6875 -18.421875 16.296875 -17.140625 16.296875 -15.390625 C 16.296875 -14.171875 15.957031 -13.164062 15.28125 -12.375 C 14.601562 -11.59375 13.617188 -11.085938 12.328125 -10.859375 L 12.328125 -10.71875 C 15.429688 -10.1875 16.984375 -8.550781 16.984375 -5.8125 C 16.984375 -3.988281 16.363281 -2.5625 15.125 -1.53125 C 13.882812 -0.507812 12.15625 0 9.9375 0 L 2.8125 0 Z M 5.1875 -11.6875 L 9.109375 -11.6875 C 10.785156 -11.6875 11.988281 -11.945312 12.71875 -12.46875 C 13.457031 -13 13.828125 -13.890625 13.828125 -15.140625 C 13.828125 -16.285156 13.414062 -17.113281 12.59375 -17.625 C 11.78125 -18.132812 10.476562 -18.390625 8.6875 -18.390625 L 5.1875 -18.390625 Z M 5.1875 -9.671875 L 5.1875 -2.03125 L 9.453125 -2.03125 C 11.097656 -2.03125 12.335938 -2.347656 13.171875 -2.984375 C 14.015625 -3.617188 14.4375 -4.617188 14.4375 -5.984375 C 14.4375 -7.253906 14.007812 -8.1875 13.15625 -8.78125 C 12.300781 -9.375 11.003906 -9.671875 9.265625 -9.671875 Z M 5.1875 -9.671875 "/></g></g></g><g fill="#000000" fill-opacity="1"><g transform="translate(251.323883, 567.949035)"><g><path d="M 8.59375 0.28125 C 6.375 0.28125 4.65625 -0.398438 3.4375 -1.765625 C 2.21875 -3.128906 1.609375 -5.0625 1.609375 -7.5625 C 1.609375 -10.125 2.222656 -12.101562 3.453125 -13.5 C 4.691406 -14.90625 6.453125 -15.609375 8.734375 -15.609375 C 9.472656 -15.609375 10.210938 -15.523438 10.953125 -15.359375 C 11.691406 -15.203125 12.269531 -15.019531 12.6875 -14.8125 L 11.96875 -12.84375 C 11.457031 -13.039062 10.898438 -13.207031 10.296875 -13.34375 C 9.691406 -13.476562 9.15625 -13.546875 8.6875 -13.546875 C 5.570312 -13.546875 4.015625 -11.5625 4.015625 -7.59375 C 4.015625 -5.707031 4.394531 -4.257812 5.15625 -3.25 C 5.914062 -2.25 7.039062 -1.75 8.53125 -1.75 C 9.8125 -1.75 11.117188 -2.023438 12.453125 -2.578125 L 12.453125 -0.515625 C 11.429688 0.015625 10.144531 0.28125 8.59375 0.28125 Z M 8.59375 0.28125 "/></g></g></g><g fill="#000000" fill-opacity="1"><g transform="translate(264.953372, 567.949035)"><g><path d="M 11.390625 -15.328125 L 13.9375 -15.328125 L 7.328125 -7.921875 L 14.484375 0 L 11.78125 0 L 4.78125 -7.765625 L 4.78125 0 L 2.46875 0 L 2.46875 -15.328125 L 4.78125 -15.328125 L 4.78125 -7.875 Z M 11.390625 -15.328125 "/></g></g></g><g fill="#000000" fill-opacity="1"><g transform="translate(279.813009, 567.949035)"><g><path d="M 4.640625 -15.328125 L 4.640625 -5.609375 L 4.546875 -3.0625 L 4.5 -2.265625 L 12.796875 -15.328125 L 15.6875 -15.328125 L 15.6875 0 L 13.515625 0 L 13.515625 -9.375 L 13.5625 -11.21875 L 13.640625 -13.03125 L 5.359375 0 L 2.46875 0 L 2.46875 -15.328125 Z M 4.640625 -15.328125 "/></g></g></g><g fill="#000000" fill-opacity="1"><g transform="translate(297.957695, 567.949035)"><g><path d="M 4.78125 0 L 2.46875 0 L 2.46875 -15.328125 L 15.328125 -15.328125 L 15.328125 0 L 12.984375 0 L 12.984375 -13.3125 L 4.78125 -13.3125 Z M 4.78125 0 "/></g></g></g><g fill="#000000" fill-opacity="1"><g transform="translate(315.738928, 567.949035)"><g><path d="M 3.234375 0 L 0.515625 0 L 4.921875 -6.46875 C 3.734375 -6.726562 2.828125 -7.234375 2.203125 -7.984375 C 1.578125 -8.742188 1.265625 -9.691406 1.265625 -10.828125 C 1.265625 -12.222656 1.734375 -13.320312 2.671875 -14.125 C 3.609375 -14.925781 4.921875 -15.328125 6.609375 -15.328125 L 13.4375 -15.328125 L 13.4375 0 L 11.125 0 L 11.125 -6.125 L 7.25 -6.125 Z M 3.53125 -10.796875 C 3.53125 -9.023438 4.816406 -8.140625 7.390625 -8.140625 L 11.125 -8.140625 L 11.125 -13.3125 L 6.90625 -13.3125 C 4.65625 -13.3125 3.53125 -12.472656 3.53125 -10.796875 Z M 3.53125 -10.796875 "/></g></g></g><g fill="#000000" fill-opacity="1"><g transform="translate(331.633008, 567.949035)"><g><path d="M 12.796875 -13.34375 L 7.8125 -13.34375 L 7.8125 0 L 5.5 0 L 5.5 -13.34375 L 0.578125 -13.34375 L 0.578125 -15.328125 L 12.796875 -15.328125 Z M 12.796875 -13.34375 "/></g></g></g><g fill="#000000" fill-opacity="1"><g transform="translate(344.996891, 567.949035)"><g><path d="M 4.640625 -15.328125 L 4.640625 -5.609375 L 4.546875 -3.0625 L 4.5 -2.265625 L 12.796875 -15.328125 L 15.6875 -15.328125 L 15.6875 0 L 13.515625 0 L 13.515625 -9.375 L 13.5625 -11.21875 L 13.640625 -13.03125 L 5.359375 0 L 2.46875 0 L 2.46875 -15.328125 Z M 4.640625 -15.328125 "/></g></g></g><g fill="#000000" fill-opacity="1"><g transform="translate(363.141577, 567.949035)"><g><path d="M 12.796875 -13.34375 L 7.8125 -13.34375 L 7.8125 0 L 5.5 0 L 5.5 -13.34375 L 0.578125 -13.34375 L 0.578125 -15.328125 L 12.796875 -15.328125 Z M 12.796875 -13.34375 "/></g></g></g><g fill="#000000" fill-opacity="1"><g transform="translate(376.50546, 567.949035)"><g><path d="M 4.78125 -8.984375 L 9.515625 -8.984375 C 13.429688 -8.984375 15.390625 -7.546875 15.390625 -4.671875 C 15.390625 -3.160156 14.878906 -2.003906 13.859375 -1.203125 C 12.835938 -0.398438 11.34375 0 9.375 0 L 2.46875 0 L 2.46875 -15.328125 L 4.78125 -15.328125 Z M 4.78125 -7 L 4.78125 -1.9375 L 9.265625 -1.9375 C 10.492188 -1.9375 11.429688 -2.148438 12.078125 -2.578125 C 12.734375 -3.015625 13.0625 -3.664062 13.0625 -4.53125 C 13.0625 -5.375 12.757812 -5.992188 12.15625 -6.390625 C 11.550781 -6.796875 10.5625 -7 9.1875 -7 Z M 4.78125 -7 "/></g></g></g><g fill="#000000" fill-opacity="1"><g transform="translate(280.926142, 607.699031)"><g><path d="M 14.890625 -11.484375 C 14.890625 -10.484375 14.601562 -9.722656 14.03125 -9.203125 C 13.457031 -8.691406 12.65625 -8.347656 11.625 -8.171875 L 11.625 -8.046875 C 12.925781 -7.867188 13.878906 -7.484375 14.484375 -6.890625 C 15.085938 -6.304688 15.390625 -5.5 15.390625 -4.46875 C 15.390625 -3.039062 14.863281 -1.9375 13.8125 -1.15625 C 12.757812 -0.382812 11.226562 0 9.21875 0 L 2.46875 0 L 2.46875 -15.328125 L 9.1875 -15.328125 C 12.988281 -15.328125 14.890625 -14.046875 14.890625 -11.484375 Z M 13.0625 -4.609375 C 13.0625 -5.441406 12.742188 -6.046875 12.109375 -6.421875 C 11.484375 -6.804688 10.441406 -7 8.984375 -7 L 4.78125 -7 L 4.78125 -1.9375 L 9.046875 -1.9375 C 11.722656 -1.9375 13.0625 -2.828125 13.0625 -4.609375 Z M 12.625 -11.25 C 12.625 -12 12.335938 -12.53125 11.765625 -12.84375 C 11.191406 -13.15625 10.320312 -13.3125 9.15625 -13.3125 L 4.78125 -13.3125 L 4.78125 -8.984375 L 8.71875 -8.984375 C 10.144531 -8.984375 11.148438 -9.160156 11.734375 -9.515625 C 12.328125 -9.878906 12.625 -10.457031 12.625 -11.25 Z M 12.625 -11.25 "/></g></g></g><g fill="#000000" fill-opacity="1"><g transform="translate(297.211632, 607.699031)"><g><path d="M 15.6875 -7.671875 C 15.6875 -5.179688 15.054688 -3.234375 13.796875 -1.828125 C 12.546875 -0.421875 10.8125 0.28125 8.59375 0.28125 C 7.21875 0.28125 6 -0.0390625 4.9375 -0.6875 C 3.875 -1.332031 3.050781 -2.253906 2.46875 -3.453125 C 1.894531 -4.660156 1.609375 -6.066406 1.609375 -7.671875 C 1.609375 -10.171875 2.234375 -12.117188 3.484375 -13.515625 C 4.734375 -14.910156 6.46875 -15.609375 8.6875 -15.609375 C 10.832031 -15.609375 12.535156 -14.894531 13.796875 -13.46875 C 15.054688 -12.039062 15.6875 -10.109375 15.6875 -7.671875 Z M 4.015625 -7.671875 C 4.015625 -5.710938 4.40625 -4.222656 5.1875 -3.203125 C 5.96875 -2.179688 7.117188 -1.671875 8.640625 -1.671875 C 10.160156 -1.671875 11.3125 -2.179688 12.09375 -3.203125 C 12.882812 -4.222656 13.28125 -5.710938 13.28125 -7.671875 C 13.28125 -9.617188 12.882812 -11.097656 12.09375 -12.109375 C 11.3125 -13.128906 10.148438 -13.640625 8.609375 -13.640625 C 7.085938 -13.640625 5.941406 -13.140625 5.171875 -12.140625 C 4.398438 -11.140625 4.015625 -9.648438 4.015625 -7.671875 Z M 4.015625 -7.671875 "/></g></g></g><g fill="#000000" fill-opacity="1"><g transform="translate(314.503607, 607.699031)"><g><path d="M 15.78125 5.296875 L 13.515625 5.296875 L 13.515625 0 L 2.8125 0 L 2.8125 5.296875 L 0.578125 5.296875 L 0.578125 -2 L 1.78125 -2 C 3.03125 -3.695312 4.007812 -5.6875 4.71875 -7.96875 C 5.425781 -10.25 5.789062 -12.703125 5.8125 -15.328125 L 13.578125 -15.328125 L 13.578125 -2 L 15.78125 -2 Z M 11.34375 -2 L 11.34375 -13.5 L 7.90625 -13.5 C 7.78125 -11.425781 7.378906 -9.328125 6.703125 -7.203125 C 6.023438 -5.085938 5.1875 -3.351562 4.1875 -2 Z M 11.34375 -2 "/></g></g></g><g fill="#000000" fill-opacity="1"><g transform="translate(330.872971, 607.699031)"><g><path d="M 0.03125 -15.328125 L 2.515625 -15.328125 L 5.875 -6.59375 C 6.613281 -4.59375 7.070312 -3.148438 7.25 -2.265625 L 7.359375 -2.265625 C 7.472656 -2.742188 7.722656 -3.554688 8.109375 -4.703125 C 8.503906 -5.859375 9.773438 -9.398438 11.921875 -15.328125 L 14.40625 -15.328125 L 7.8125 2.125 C 7.164062 3.851562 6.40625 5.078125 5.53125 5.796875 C 4.65625 6.515625 3.585938 6.875 2.328125 6.875 C 1.617188 6.875 0.914062 6.796875 0.21875 6.640625 L 0.21875 4.78125 C 0.738281 4.894531 1.3125 4.953125 1.9375 4.953125 C 3.53125 4.953125 4.671875 4.054688 5.359375 2.265625 L 6.203125 0.078125 Z M 0.03125 -15.328125 "/></g></g></g><path stroke-linecap="butt" transform="matrix(0, 0.75, -0.75, 0, 313.12317, 447.209149)" fill="none" stroke-linejoin="miter" d="M 0.00238443 3.99756 L 34.684679 3.99756 " stroke="#000000" stroke-width="8" stroke-opacity="1" stroke-miterlimit="4"/><path stroke-linecap="round" transform="matrix(0, 0.75, -0.75, 0, 313.12317, 447.209149)" fill-opacity="1" fill="#000000" fill-rule="nonzero" stroke-linejoin="round" d="M 36.684679 -8.002441 L 52.684681 3.99756 L 36.684679 15.997561 Z M 36.684679 -8.002441 " stroke="#000000" stroke-width="8" stroke-opacity="1" stroke-miterlimit="4"/><g clip-path="url(#9943c76411)"><g clip-path="url(#41d8219d56)"><g transform="matrix(1, 0, 0, 1, 144, 717)"><g clip-path="url(#269394f2da)"><g clip-path="url(#b19e821f68)"><g clip-path="url(#a66992ac41)"><path fill="#fc7fa9" d="M 0.472656 0.0078125 L 335.167969 0.0078125 L 335.167969 142.574219 L 0.472656 142.574219 Z M 0.472656 0.0078125 " fill-opacity="1" fill-rule="nonzero"/></g></g></g></g></g></g><g fill="#000000" fill-opacity="1"><g transform="translate(182.54682, 778.508168)"><g><path d="M 18.0625 0 L 15.6875 0 L 15.6875 -18.328125 L 5.1875 -18.328125 L 5.1875 0 L 2.8125 0 L 2.8125 -20.453125 L 18.0625 -20.453125 Z M 18.0625 0 "/></g></g></g><g fill="#000000" fill-opacity="1"><g transform="translate(203.417408, 778.508168)"><g><path d="M 15.6875 -7.671875 C 15.6875 -5.179688 15.054688 -3.234375 13.796875 -1.828125 C 12.546875 -0.421875 10.8125 0.28125 8.59375 0.28125 C 7.21875 0.28125 6 -0.0390625 4.9375 -0.6875 C 3.875 -1.332031 3.050781 -2.253906 2.46875 -3.453125 C 1.894531 -4.660156 1.609375 -6.066406 1.609375 -7.671875 C 1.609375 -10.171875 2.234375 -12.117188 3.484375 -13.515625 C 4.734375 -14.910156 6.46875 -15.609375 8.6875 -15.609375 C 10.832031 -15.609375 12.535156 -14.894531 13.796875 -13.46875 C 15.054688 -12.039062 15.6875 -10.109375 15.6875 -7.671875 Z M 4.015625 -7.671875 C 4.015625 -5.710938 4.40625 -4.222656 5.1875 -3.203125 C 5.96875 -2.179688 7.117188 -1.671875 8.640625 -1.671875 C 10.160156 -1.671875 11.3125 -2.179688 12.09375 -3.203125 C 12.882812 -4.222656 13.28125 -5.710938 13.28125 -7.671875 C 13.28125 -9.617188 12.882812 -11.097656 12.09375 -12.109375 C 11.3125 -13.128906 10.148438 -13.640625 8.609375 -13.640625 C 7.085938 -13.640625 5.941406 -13.140625 5.171875 -12.140625 C 4.398438 -11.140625 4.015625 -9.648438 4.015625 -7.671875 Z M 4.015625 -7.671875 "/></g></g></g><g fill="#000000" fill-opacity="1"><g transform="translate(220.709384, 778.508168)"><g><path d="M 13.890625 0 L 11.53125 0 L 11.53125 -13.34375 L 6.9375 -13.34375 C 6.6875 -10.019531 6.335938 -7.382812 5.890625 -5.4375 C 5.441406 -3.488281 4.859375 -2.0625 4.140625 -1.15625 C 3.429688 -0.25 2.523438 0.203125 1.421875 0.203125 C 0.921875 0.203125 0.519531 0.144531 0.21875 0.03125 L 0.21875 -1.6875 C 0.425781 -1.632812 0.660156 -1.609375 0.921875 -1.609375 C 1.992188 -1.609375 2.847656 -2.738281 3.484375 -5 C 4.117188 -7.269531 4.597656 -10.710938 4.921875 -15.328125 L 13.890625 -15.328125 Z M 13.890625 0 "/></g></g></g><g fill="#000000" fill-opacity="1"><g transform="translate(237.05079, 778.508168)"><g><path d="M 15.6875 -7.671875 C 15.6875 -5.179688 15.054688 -3.234375 13.796875 -1.828125 C 12.546875 -0.421875 10.8125 0.28125 8.59375 0.28125 C 7.21875 0.28125 6 -0.0390625 4.9375 -0.6875 C 3.875 -1.332031 3.050781 -2.253906 2.46875 -3.453125 C 1.894531 -4.660156 1.609375 -6.066406 1.609375 -7.671875 C 1.609375 -10.171875 2.234375 -12.117188 3.484375 -13.515625 C 4.734375 -14.910156 6.46875 -15.609375 8.6875 -15.609375 C 10.832031 -15.609375 12.535156 -14.894531 13.796875 -13.46875 C 15.054688 -12.039062 15.6875 -10.109375 15.6875 -7.671875 Z M 4.015625 -7.671875 C 4.015625 -5.710938 4.40625 -4.222656 5.1875 -3.203125 C 5.96875 -2.179688 7.117188 -1.671875 8.640625 -1.671875 C 10.160156 -1.671875 11.3125 -2.179688 12.09375 -3.203125 C 12.882812 -4.222656 13.28125 -5.710938 13.28125 -7.671875 C 13.28125 -9.617188 12.882812 -11.097656 12.09375 -12.109375 C 11.3125 -13.128906 10.148438 -13.640625 8.609375 -13.640625 C 7.085938 -13.640625 5.941406 -13.140625 5.171875 -12.140625 C 4.398438 -11.140625 4.015625 -9.648438 4.015625 -7.671875 Z M 4.015625 -7.671875 "/></g></g></g><g fill="#000000" fill-opacity="1"><g transform="translate(254.342765, 778.508168)"><g><path d="M 9.453125 -15.296875 L 11.59375 -15.296875 L 11.59375 -7.875 L 17.921875 -15.296875 L 20.46875 -15.296875 L 14.0625 -7.875 L 21.015625 0 L 18.328125 0 L 11.59375 -7.765625 L 11.59375 0 L 9.453125 0 L 9.453125 -7.765625 L 2.734375 0 L 0.0625 0 L 7 -7.875 L 0.59375 -15.296875 L 3.140625 -15.296875 L 9.453125 -7.875 Z M 9.453125 -15.296875 "/></g></g></g><g fill="#000000" fill-opacity="1"><g transform="translate(275.409059, 778.508168)"><g><path d="M 4.640625 -15.328125 L 4.640625 -5.609375 L 4.546875 -3.0625 L 4.5 -2.265625 L 12.796875 -15.328125 L 15.6875 -15.328125 L 15.6875 0 L 13.515625 0 L 13.515625 -9.375 L 13.5625 -11.21875 L 13.640625 -13.03125 L 5.359375 0 L 2.46875 0 L 2.46875 -15.328125 Z M 4.640625 -15.328125 "/></g></g></g><g fill="#000000" fill-opacity="1"><g transform="translate(293.553745, 778.508168)"><g><path d="M 12.796875 -13.34375 L 7.8125 -13.34375 L 7.8125 0 L 5.5 0 L 5.5 -13.34375 L 0.578125 -13.34375 L 0.578125 -15.328125 L 12.796875 -15.328125 Z M 12.796875 -13.34375 "/></g></g></g><g fill="#000000" fill-opacity="1"><g transform="translate(306.917628, 778.508168)"><g><path d="M 4.78125 -8.984375 L 9.515625 -8.984375 C 13.429688 -8.984375 15.390625 -7.546875 15.390625 -4.671875 C 15.390625 -3.160156 14.878906 -2.003906 13.859375 -1.203125 C 12.835938 -0.398438 11.34375 0 9.375 0 L 2.46875 0 L 2.46875 -15.328125 L 4.78125 -15.328125 Z M 4.78125 -7 L 4.78125 -1.9375 L 9.265625 -1.9375 C 10.492188 -1.9375 11.429688 -2.148438 12.078125 -2.578125 C 12.734375 -3.015625 13.0625 -3.664062 13.0625 -4.53125 C 13.0625 -5.375 12.757812 -5.992188 12.15625 -6.390625 C 11.550781 -6.796875 10.5625 -7 9.1875 -7 Z M 4.78125 -7 "/></g></g></g><g fill="#000000" fill-opacity="1"><g transform="translate(323.860124, 778.508168)"><g/></g></g><g fill="#000000" fill-opacity="1"><g transform="translate(331.296929, 778.508168)"><g><path d="M 4.5 -15.328125 L 4.5 -9.734375 C 4.5 -7.941406 5.519531 -7.046875 7.5625 -7.046875 C 8.414062 -7.046875 9.226562 -7.175781 10 -7.4375 C 10.769531 -7.695312 11.644531 -8.140625 12.625 -8.765625 L 12.625 -15.328125 L 14.953125 -15.328125 L 14.953125 0 L 12.625 0 L 12.625 -6.9375 C 11.644531 -6.257812 10.738281 -5.785156 9.90625 -5.515625 C 9.070312 -5.242188 8.128906 -5.109375 7.078125 -5.109375 C 5.546875 -5.109375 4.347656 -5.507812 3.484375 -6.3125 C 2.617188 -7.113281 2.1875 -8.195312 2.1875 -9.5625 L 2.1875 -15.328125 Z M 4.5 -15.328125 "/></g></g></g><g fill="#000000" fill-opacity="1"><g transform="translate(348.700736, 778.508168)"><g><path d="M 11.890625 0 L 11.421875 -2.1875 L 11.3125 -2.1875 C 10.550781 -1.21875 9.789062 -0.5625 9.03125 -0.21875 C 8.269531 0.113281 7.320312 0.28125 6.1875 0.28125 C 4.664062 0.28125 3.472656 -0.109375 2.609375 -0.890625 C 1.742188 -1.671875 1.3125 -2.785156 1.3125 -4.234375 C 1.3125 -7.328125 3.785156 -8.953125 8.734375 -9.109375 L 11.34375 -9.1875 L 11.34375 -10.140625 C 11.34375 -11.335938 11.082031 -12.222656 10.5625 -12.796875 C 10.050781 -13.367188 9.222656 -13.65625 8.078125 -13.65625 C 6.804688 -13.65625 5.363281 -13.265625 3.75 -12.484375 L 3.03125 -14.265625 C 3.789062 -14.671875 4.617188 -14.988281 5.515625 -15.21875 C 6.410156 -15.457031 7.3125 -15.578125 8.21875 -15.578125 C 10.050781 -15.578125 11.40625 -15.171875 12.28125 -14.359375 C 13.164062 -13.546875 13.609375 -12.242188 13.609375 -10.453125 L 13.609375 0 Z M 6.640625 -1.640625 C 8.085938 -1.640625 9.222656 -2.035156 10.046875 -2.828125 C 10.867188 -3.617188 11.28125 -4.726562 11.28125 -6.15625 L 11.28125 -7.53125 L 8.96875 -7.4375 C 7.113281 -7.375 5.78125 -7.085938 4.96875 -6.578125 C 4.15625 -6.066406 3.75 -5.273438 3.75 -4.203125 C 3.75 -3.367188 4 -2.734375 4.5 -2.296875 C 5.007812 -1.859375 5.722656 -1.640625 6.640625 -1.640625 Z M 6.640625 -1.640625 "/></g></g></g><g fill="#000000" fill-opacity="1"><g transform="translate(364.622773, 778.508168)"><g><path d="M 4.640625 -15.328125 L 4.640625 -5.609375 L 4.546875 -3.0625 L 4.5 -2.265625 L 12.796875 -15.328125 L 15.6875 -15.328125 L 15.6875 0 L 13.515625 0 L 13.515625 -9.375 L 13.5625 -11.21875 L 13.640625 -13.03125 L 5.359375 0 L 2.46875 0 L 2.46875 -15.328125 Z M 9.03125 -17.359375 C 7.300781 -17.359375 6.039062 -17.691406 5.25 -18.359375 C 4.457031 -19.023438 4.015625 -20.117188 3.921875 -21.640625 L 6.109375 -21.640625 C 6.191406 -20.671875 6.441406 -19.992188 6.859375 -19.609375 C 7.285156 -19.234375 8.023438 -19.046875 9.078125 -19.046875 C 10.035156 -19.046875 10.742188 -19.25 11.203125 -19.65625 C 11.671875 -20.070312 11.957031 -20.734375 12.0625 -21.640625 L 14.25 -21.640625 C 14.144531 -20.171875 13.675781 -19.085938 12.84375 -18.390625 C 12.007812 -17.703125 10.738281 -17.359375 9.03125 -17.359375 Z M 9.03125 -17.359375 "/></g></g></g><g fill="#000000" fill-opacity="1"><g transform="translate(382.767459, 778.508168)"><g><path d="M 4.78125 -15.328125 L 4.78125 -8.90625 L 13.375 -8.90625 L 13.375 -15.328125 L 15.6875 -15.328125 L 15.6875 0 L 13.375 0 L 13.375 -6.90625 L 4.78125 -6.90625 L 4.78125 0 L 2.46875 0 L 2.46875 -15.328125 Z M 4.78125 -15.328125 "/></g></g></g><g fill="#000000" fill-opacity="1"><g transform="translate(400.912157, 778.508168)"><g><path d="M 4.78125 -8.984375 L 8.96875 -8.984375 C 10.914062 -8.984375 12.359375 -8.625 13.296875 -7.90625 C 14.234375 -7.1875 14.703125 -6.109375 14.703125 -4.671875 C 14.703125 -3.128906 14.203125 -1.960938 13.203125 -1.171875 C 12.210938 -0.390625 10.753906 0 8.828125 0 L 2.46875 0 L 2.46875 -15.328125 L 4.78125 -15.328125 Z M 19.59375 0 L 17.265625 0 L 17.265625 -15.328125 L 19.59375 -15.328125 Z M 4.78125 -7 L 4.78125 -1.9375 L 8.71875 -1.9375 C 11.175781 -1.9375 12.40625 -2.800781 12.40625 -4.53125 C 12.40625 -5.382812 12.117188 -6.007812 11.546875 -6.40625 C 10.984375 -6.800781 10.015625 -7 8.640625 -7 Z M 4.78125 -7 "/></g></g></g><g fill="#000000" fill-opacity="1"><g transform="translate(422.956954, 778.508168)"><g><path d="M 4.640625 -15.328125 L 4.640625 -5.609375 L 4.546875 -3.0625 L 4.5 -2.265625 L 12.796875 -15.328125 L 15.6875 -15.328125 L 15.6875 0 L 13.515625 0 L 13.515625 -9.375 L 13.5625 -11.21875 L 13.640625 -13.03125 L 5.359375 0 L 2.46875 0 L 2.46875 -15.328125 Z M 9.03125 -17.359375 C 7.300781 -17.359375 6.039062 -17.691406 5.25 -18.359375 C 4.457031 -19.023438 4.015625 -20.117188 3.921875 -21.640625 L 6.109375 -21.640625 C 6.191406 -20.671875 6.441406 -19.992188 6.859375 -19.609375 C 7.285156 -19.234375 8.023438 -19.046875 9.078125 -19.046875 C 10.035156 -19.046875 10.742188 -19.25 11.203125 -19.65625 C 11.671875 -20.070312 11.957031 -20.734375 12.0625 -21.640625 L 14.25 -21.640625 C 14.144531 -20.171875 13.675781 -19.085938 12.84375 -18.390625 C 12.007812 -17.703125 10.738281 -17.359375 9.03125 -17.359375 Z M 9.03125 -17.359375 "/></g></g></g><g fill="#000000" fill-opacity="1"><g transform="translate(192.156194, 818.258165)"><g><path d="M 4.78125 0 L 2.46875 0 L 2.46875 -15.328125 L 15.328125 -15.328125 L 15.328125 0 L 12.984375 0 L 12.984375 -13.3125 L 4.78125 -13.3125 Z M 4.78125 0 "/></g></g></g><g fill="#000000" fill-opacity="1"><g transform="translate(209.937427, 818.258165)"><g><path d="M 11.890625 0 L 11.421875 -2.1875 L 11.3125 -2.1875 C 10.550781 -1.21875 9.789062 -0.5625 9.03125 -0.21875 C 8.269531 0.113281 7.320312 0.28125 6.1875 0.28125 C 4.664062 0.28125 3.472656 -0.109375 2.609375 -0.890625 C 1.742188 -1.671875 1.3125 -2.785156 1.3125 -4.234375 C 1.3125 -7.328125 3.785156 -8.953125 8.734375 -9.109375 L 11.34375 -9.1875 L 11.34375 -10.140625 C 11.34375 -11.335938 11.082031 -12.222656 10.5625 -12.796875 C 10.050781 -13.367188 9.222656 -13.65625 8.078125 -13.65625 C 6.804688 -13.65625 5.363281 -13.265625 3.75 -12.484375 L 3.03125 -14.265625 C 3.789062 -14.671875 4.617188 -14.988281 5.515625 -15.21875 C 6.410156 -15.457031 7.3125 -15.578125 8.21875 -15.578125 C 10.050781 -15.578125 11.40625 -15.171875 12.28125 -14.359375 C 13.164062 -13.546875 13.609375 -12.242188 13.609375 -10.453125 L 13.609375 0 Z M 6.640625 -1.640625 C 8.085938 -1.640625 9.222656 -2.035156 10.046875 -2.828125 C 10.867188 -3.617188 11.28125 -4.726562 11.28125 -6.15625 L 11.28125 -7.53125 L 8.96875 -7.4375 C 7.113281 -7.375 5.78125 -7.085938 4.96875 -6.578125 C 4.15625 -6.066406 3.75 -5.273438 3.75 -4.203125 C 3.75 -3.367188 4 -2.734375 4.5 -2.296875 C 5.007812 -1.859375 5.722656 -1.640625 6.640625 -1.640625 Z M 6.640625 -1.640625 "/></g></g></g><g fill="#000000" fill-opacity="1"><g transform="translate(225.859464, 818.258165)"><g><path d="M 11.390625 -15.328125 L 13.9375 -15.328125 L 7.328125 -7.921875 L 14.484375 0 L 11.78125 0 L 4.78125 -7.765625 L 4.78125 0 L 2.46875 0 L 2.46875 -15.328125 L 4.78125 -15.328125 L 4.78125 -7.875 Z M 11.390625 -15.328125 "/></g></g></g><g fill="#000000" fill-opacity="1"><g transform="translate(240.719101, 818.258165)"><g><path d="M 8.9375 0.28125 C 6.664062 0.28125 4.875 -0.40625 3.5625 -1.78125 C 2.257812 -3.164062 1.609375 -5.082031 1.609375 -7.53125 C 1.609375 -10.007812 2.21875 -11.972656 3.4375 -13.421875 C 4.65625 -14.878906 6.285156 -15.609375 8.328125 -15.609375 C 10.253906 -15.609375 11.773438 -14.972656 12.890625 -13.703125 C 14.015625 -12.441406 14.578125 -10.78125 14.578125 -8.71875 L 14.578125 -7.25 L 4.015625 -7.25 C 4.054688 -5.445312 4.507812 -4.078125 5.375 -3.140625 C 6.238281 -2.210938 7.453125 -1.75 9.015625 -1.75 C 10.671875 -1.75 12.304688 -2.09375 13.921875 -2.78125 L 13.921875 -0.71875 C 13.097656 -0.363281 12.316406 -0.109375 11.578125 0.046875 C 10.847656 0.203125 9.96875 0.28125 8.9375 0.28125 Z M 8.3125 -13.65625 C 7.070312 -13.65625 6.085938 -13.253906 5.359375 -12.453125 C 4.628906 -11.648438 4.195312 -10.539062 4.0625 -9.125 L 12.078125 -9.125 C 12.078125 -10.59375 11.75 -11.710938 11.09375 -12.484375 C 10.445312 -13.265625 9.519531 -13.65625 8.3125 -13.65625 Z M 8.3125 -13.65625 "/></g></g></g><g fill="#000000" fill-opacity="1"><g transform="translate(256.780928, 818.258165)"><g><path d="M 12.796875 -13.34375 L 7.8125 -13.34375 L 7.8125 0 L 5.5 0 L 5.5 -13.34375 L 0.578125 -13.34375 L 0.578125 -15.328125 L 12.796875 -15.328125 Z M 12.796875 -13.34375 "/></g></g></g><g fill="#000000" fill-opacity="1"><g transform="translate(270.144811, 818.258165)"><g><path d="M 4.640625 -15.328125 L 4.640625 -5.609375 L 4.546875 -3.0625 L 4.5 -2.265625 L 12.796875 -15.328125 L 15.6875 -15.328125 L 15.6875 0 L 13.515625 0 L 13.515625 -9.375 L 13.5625 -11.21875 L 13.640625 -13.03125 L 5.359375 0 L 2.46875 0 L 2.46875 -15.328125 Z M 4.640625 -15.328125 "/></g></g></g><g fill="#000000" fill-opacity="1"><g transform="translate(288.289497, 818.258165)"><g><path d="M 11.390625 -15.328125 L 13.9375 -15.328125 L 7.328125 -7.921875 L 14.484375 0 L 11.78125 0 L 4.78125 -7.765625 L 4.78125 0 L 2.46875 0 L 2.46875 -15.328125 L 4.78125 -15.328125 L 4.78125 -7.875 Z M 11.390625 -15.328125 "/></g></g></g><g fill="#000000" fill-opacity="1"><g transform="translate(303.149134, 818.258165)"><g/></g></g><g fill="#000000" fill-opacity="1"><g transform="translate(310.585939, 818.258165)"><g><path d="M 14.890625 -11.484375 C 14.890625 -10.484375 14.601562 -9.722656 14.03125 -9.203125 C 13.457031 -8.691406 12.65625 -8.347656 11.625 -8.171875 L 11.625 -8.046875 C 12.925781 -7.867188 13.878906 -7.484375 14.484375 -6.890625 C 15.085938 -6.304688 15.390625 -5.5 15.390625 -4.46875 C 15.390625 -3.039062 14.863281 -1.9375 13.8125 -1.15625 C 12.757812 -0.382812 11.226562 0 9.21875 0 L 2.46875 0 L 2.46875 -15.328125 L 9.1875 -15.328125 C 12.988281 -15.328125 14.890625 -14.046875 14.890625 -11.484375 Z M 13.0625 -4.609375 C 13.0625 -5.441406 12.742188 -6.046875 12.109375 -6.421875 C 11.484375 -6.804688 10.441406 -7 8.984375 -7 L 4.78125 -7 L 4.78125 -1.9375 L 9.046875 -1.9375 C 11.722656 -1.9375 13.0625 -2.828125 13.0625 -4.609375 Z M 12.625 -11.25 C 12.625 -12 12.335938 -12.53125 11.765625 -12.84375 C 11.191406 -13.15625 10.320312 -13.3125 9.15625 -13.3125 L 4.78125 -13.3125 L 4.78125 -8.984375 L 8.71875 -8.984375 C 10.144531 -8.984375 11.148438 -9.160156 11.734375 -9.515625 C 12.328125 -9.878906 12.625 -10.457031 12.625 -11.25 Z M 12.625 -11.25 "/></g></g></g><g fill="#000000" fill-opacity="1"><g transform="translate(326.87143, 818.258165)"><g/></g></g><g fill="#000000" fill-opacity="1"><g transform="translate(334.308235, 818.258165)"><g><path d="M 11.390625 -15.328125 L 13.9375 -15.328125 L 7.328125 -7.921875 L 14.484375 0 L 11.78125 0 L 4.78125 -7.765625 L 4.78125 0 L 2.46875 0 L 2.46875 -15.328125 L 4.78125 -15.328125 L 4.78125 -7.875 Z M 11.390625 -15.328125 "/></g></g></g><g fill="#000000" fill-opacity="1"><g transform="translate(349.167872, 818.258165)"><g><path d="M 9.59375 0.28125 C 8.59375 0.28125 7.679688 0.0976562 6.859375 -0.265625 C 6.035156 -0.640625 5.34375 -1.207031 4.78125 -1.96875 L 4.609375 -1.96875 C 4.722656 -1.070312 4.78125 -0.222656 4.78125 0.578125 L 4.78125 6.875 L 2.46875 6.875 L 2.46875 -15.328125 L 4.34375 -15.328125 L 4.671875 -13.234375 L 4.78125 -13.234375 C 5.375 -14.066406 6.066406 -14.671875 6.859375 -15.046875 C 7.660156 -15.421875 8.570312 -15.609375 9.59375 -15.609375 C 11.625 -15.609375 13.191406 -14.910156 14.296875 -13.515625 C 15.398438 -12.128906 15.953125 -10.179688 15.953125 -7.671875 C 15.953125 -5.160156 15.390625 -3.207031 14.265625 -1.8125 C 13.148438 -0.414062 11.59375 0.28125 9.59375 0.28125 Z M 9.265625 -13.640625 C 7.691406 -13.640625 6.554688 -13.203125 5.859375 -12.328125 C 5.160156 -11.460938 4.800781 -10.082031 4.78125 -8.1875 L 4.78125 -7.671875 C 4.78125 -5.523438 5.140625 -3.988281 5.859375 -3.0625 C 6.578125 -2.132812 7.726562 -1.671875 9.3125 -1.671875 C 10.632812 -1.671875 11.671875 -2.203125 12.421875 -3.265625 C 13.171875 -4.335938 13.546875 -5.816406 13.546875 -7.703125 C 13.546875 -9.617188 13.171875 -11.085938 12.421875 -12.109375 C 11.671875 -13.128906 10.617188 -13.640625 9.265625 -13.640625 Z M 9.265625 -13.640625 "/></g></g></g><g fill="#000000" fill-opacity="1"><g transform="translate(366.711468, 818.258165)"><g><path d="M 0.03125 -15.328125 L 2.515625 -15.328125 L 5.875 -6.59375 C 6.613281 -4.59375 7.070312 -3.148438 7.25 -2.265625 L 7.359375 -2.265625 C 7.472656 -2.742188 7.722656 -3.554688 8.109375 -4.703125 C 8.503906 -5.859375 9.773438 -9.398438 11.921875 -15.328125 L 14.40625 -15.328125 L 7.8125 2.125 C 7.164062 3.851562 6.40625 5.078125 5.53125 5.796875 C 4.65625 6.515625 3.585938 6.875 2.328125 6.875 C 1.617188 6.875 0.914062 6.796875 0.21875 6.640625 L 0.21875 4.78125 C 0.738281 4.894531 1.3125 4.953125 1.9375 4.953125 C 3.53125 4.953125 4.671875 4.054688 5.359375 2.265625 L 6.203125 0.078125 Z M 0.03125 -15.328125 "/></g></g></g><g fill="#000000" fill-opacity="1"><g transform="translate(381.137751, 818.258165)"><g><path d="M 9.453125 -15.296875 L 11.59375 -15.296875 L 11.59375 -7.875 L 17.921875 -15.296875 L 20.46875 -15.296875 L 14.0625 -7.875 L 21.015625 0 L 18.328125 0 L 11.59375 -7.765625 L 11.59375 0 L 9.453125 0 L 9.453125 -7.765625 L 2.734375 0 L 0.0625 0 L 7 -7.875 L 0.59375 -15.296875 L 3.140625 -15.296875 L 9.453125 -7.875 Z M 9.453125 -15.296875 "/></g></g></g><g fill="#000000" fill-opacity="1"><g transform="translate(402.204056, 818.258165)"><g><path d="M 11.390625 -15.328125 L 13.9375 -15.328125 L 7.328125 -7.921875 L 14.484375 0 L 11.78125 0 L 4.78125 -7.765625 L 4.78125 0 L 2.46875 0 L 2.46875 -15.328125 L 4.78125 -15.328125 L 4.78125 -7.875 Z M 11.390625 -15.328125 "/></g></g></g><g fill="#000000" fill-opacity="1"><g transform="translate(417.063682, 818.258165)"><g><path d="M 0.03125 -15.328125 L 2.515625 -15.328125 L 5.875 -6.59375 C 6.613281 -4.59375 7.070312 -3.148438 7.25 -2.265625 L 7.359375 -2.265625 C 7.472656 -2.742188 7.722656 -3.554688 8.109375 -4.703125 C 8.503906 -5.859375 9.773438 -9.398438 11.921875 -15.328125 L 14.40625 -15.328125 L 7.8125 2.125 C 7.164062 3.851562 6.40625 5.078125 5.53125 5.796875 C 4.65625 6.515625 3.585938 6.875 2.328125 6.875 C 1.617188 6.875 0.914062 6.796875 0.21875 6.640625 L 0.21875 4.78125 C 0.738281 4.894531 1.3125 4.953125 1.9375 4.953125 C 3.53125 4.953125 4.671875 4.054688 5.359375 2.265625 L 6.203125 0.078125 Z M 0.03125 -15.328125 "/></g></g></g><path stroke-linecap="butt" transform="matrix(0, 0.75, -0.75, 0, 308.842516, 667.018818)" fill="none" stroke-linejoin="miter" d="M 0.000950868 3.998354 L 34.683246 3.998354 " stroke="#000000" stroke-width="8" stroke-opacity="1" stroke-miterlimit="4"/><path stroke-linecap="round" transform="matrix(0, 0.75, -0.75, 0, 308.842516, 667.018818)" fill-opacity="1" fill="#000000" fill-rule="nonzero" stroke-linejoin="round" d="M 36.683246 -8.001647 L 52.683247 3.998354 L 36.683246 15.998355 Z M 36.683246 -8.001647 " stroke="#000000" stroke-width="8" stroke-opacity="1" stroke-miterlimit="4"/><path stroke-linecap="butt" transform="matrix(0, 0.75, -0.75, 0, 307.346238, 880.52556)" fill="none" stroke-linejoin="miter" d="M 0.00237891 3.998109 L 34.684674 3.998109 " stroke="#000000" stroke-width="8" stroke-opacity="1" stroke-miterlimit="4"/><path stroke-linecap="round" transform="matrix(0, 0.75, -0.75, 0, 307.346238, 880.52556)" fill-opacity="1" fill="#000000" fill-rule="nonzero" stroke-linejoin="round" d="M 36.684674 -8.001892 L 52.684675 3.998109 L 36.684674 15.99811 Z M 36.684674 -8.001892 " stroke="#000000" stroke-width="8" stroke-opacity="1" stroke-miterlimit="4"/><g clip-path="url(#79a590d284)"><g clip-path="url(#821a672610)"><g transform="matrix(1, 0, 0, 1, 193, 1160)"><g clip-path="url(#f8717081e8)"><g clip-path="url(#ce1eed3c92)"><g clip-path="url(#f50ab8518e)"><path fill="#d9d9d9" d="M 0.480469 0.480469 L 237.164062 0.480469 L 237.164062 143.046875 L 0.480469 143.046875 Z M 0.480469 0.480469 " fill-opacity="1" fill-rule="nonzero"/></g></g></g></g></g></g><g fill="#000000" fill-opacity="1"><g transform="translate(268.352861, 1242.230608)"><g><path d="M 17.515625 0 L 14.640625 0 L 5.1875 -10.359375 L 5.1875 0 L 2.8125 0 L 2.8125 -20.453125 L 5.1875 -20.453125 L 5.1875 -10.546875 L 14.40625 -20.453125 L 17.125 -20.453125 L 8.078125 -10.515625 Z M 17.515625 0 "/></g></g></g><g fill="#000000" fill-opacity="1"><g transform="translate(285.8685, 1242.230608)"><g><path d="M 15.6875 -7.671875 C 15.6875 -5.179688 15.054688 -3.234375 13.796875 -1.828125 C 12.546875 -0.421875 10.8125 0.28125 8.59375 0.28125 C 7.21875 0.28125 6 -0.0390625 4.9375 -0.6875 C 3.875 -1.332031 3.050781 -2.253906 2.46875 -3.453125 C 1.894531 -4.660156 1.609375 -6.066406 1.609375 -7.671875 C 1.609375 -10.171875 2.234375 -12.117188 3.484375 -13.515625 C 4.734375 -14.910156 6.46875 -15.609375 8.6875 -15.609375 C 10.832031 -15.609375 12.535156 -14.894531 13.796875 -13.46875 C 15.054688 -12.039062 15.6875 -10.109375 15.6875 -7.671875 Z M 4.015625 -7.671875 C 4.015625 -5.710938 4.40625 -4.222656 5.1875 -3.203125 C 5.96875 -2.179688 7.117188 -1.671875 8.640625 -1.671875 C 10.160156 -1.671875 11.3125 -2.179688 12.09375 -3.203125 C 12.882812 -4.222656 13.28125 -5.710938 13.28125 -7.671875 C 13.28125 -9.617188 12.882812 -11.097656 12.09375 -12.109375 C 11.3125 -13.128906 10.148438 -13.640625 8.609375 -13.640625 C 7.085938 -13.640625 5.941406 -13.140625 5.171875 -12.140625 C 4.398438 -11.140625 4.015625 -9.648438 4.015625 -7.671875 Z M 4.015625 -7.671875 "/></g></g></g><g fill="#000000" fill-opacity="1"><g transform="translate(303.160475, 1242.230608)"><g><path d="M 4.78125 -15.328125 L 4.78125 -8.90625 L 13.375 -8.90625 L 13.375 -15.328125 L 15.6875 -15.328125 L 15.6875 0 L 13.375 0 L 13.375 -6.90625 L 4.78125 -6.90625 L 4.78125 0 L 2.46875 0 L 2.46875 -15.328125 Z M 4.78125 -15.328125 "/></g></g></g><g fill="#000000" fill-opacity="1"><g transform="translate(321.305161, 1242.230608)"><g><path d="M 8.9375 0.28125 C 6.664062 0.28125 4.875 -0.40625 3.5625 -1.78125 C 2.257812 -3.164062 1.609375 -5.082031 1.609375 -7.53125 C 1.609375 -10.007812 2.21875 -11.972656 3.4375 -13.421875 C 4.65625 -14.878906 6.285156 -15.609375 8.328125 -15.609375 C 10.253906 -15.609375 11.773438 -14.972656 12.890625 -13.703125 C 14.015625 -12.441406 14.578125 -10.78125 14.578125 -8.71875 L 14.578125 -7.25 L 4.015625 -7.25 C 4.054688 -5.445312 4.507812 -4.078125 5.375 -3.140625 C 6.238281 -2.210938 7.453125 -1.75 9.015625 -1.75 C 10.671875 -1.75 12.304688 -2.09375 13.921875 -2.78125 L 13.921875 -0.71875 C 13.097656 -0.363281 12.316406 -0.109375 11.578125 0.046875 C 10.847656 0.203125 9.96875 0.28125 8.9375 0.28125 Z M 8.3125 -13.65625 C 7.070312 -13.65625 6.085938 -13.253906 5.359375 -12.453125 C 4.628906 -11.648438 4.195312 -10.539062 4.0625 -9.125 L 12.078125 -9.125 C 12.078125 -10.59375 11.75 -11.710938 11.09375 -12.484375 C 10.445312 -13.265625 9.519531 -13.65625 8.3125 -13.65625 Z M 8.3125 -13.65625 "/></g></g></g><g fill="#000000" fill-opacity="1"><g transform="translate(337.366988, 1242.230608)"><g><path d="M 17.40625 5.296875 L 15.09375 5.296875 L 15.09375 0 L 2.46875 0 L 2.46875 -15.328125 L 4.78125 -15.328125 L 4.78125 -2 L 12.921875 -2 L 12.921875 -15.328125 L 15.25 -15.328125 L 15.25 -2 L 17.40625 -2 Z M 17.40625 5.296875 "/></g></g></g><g clip-path="url(#dc76a69c58)"><g clip-path="url(#545e430a1a)"><g transform="matrix(1, 0, 0, 1, 165, 933)"><g clip-path="url(#94912b3a00)"><g clip-path="url(#89ab878e1d)"><g clip-path="url(#a5c95d9fce)"><path fill="#a5e7c9" d="M 0.394531 0.507812 L 293.320312 0.507812 L 293.320312 143.074219 L 0.394531 143.074219 Z M 0.394531 0.507812 " fill-opacity="1" fill-rule="nonzero"/></g></g></g></g></g></g><g fill="#000000" fill-opacity="1"><g transform="translate(197.877652, 995.007422)"><g><path d="M 18.328125 0 L 15.953125 0 L 15.953125 -9.625 L 5.1875 -9.625 L 5.1875 0 L 2.8125 0 L 2.8125 -20.453125 L 5.1875 -20.453125 L 5.1875 -11.75 L 15.953125 -11.75 L 15.953125 -20.453125 L 18.328125 -20.453125 Z M 18.328125 0 "/></g></g></g><g fill="#000000" fill-opacity="1"><g transform="translate(218.999862, 995.007422)"><g><path d="M 11.890625 0 L 11.421875 -2.1875 L 11.3125 -2.1875 C 10.550781 -1.21875 9.789062 -0.5625 9.03125 -0.21875 C 8.269531 0.113281 7.320312 0.28125 6.1875 0.28125 C 4.664062 0.28125 3.472656 -0.109375 2.609375 -0.890625 C 1.742188 -1.671875 1.3125 -2.785156 1.3125 -4.234375 C 1.3125 -7.328125 3.785156 -8.953125 8.734375 -9.109375 L 11.34375 -9.1875 L 11.34375 -10.140625 C 11.34375 -11.335938 11.082031 -12.222656 10.5625 -12.796875 C 10.050781 -13.367188 9.222656 -13.65625 8.078125 -13.65625 C 6.804688 -13.65625 5.363281 -13.265625 3.75 -12.484375 L 3.03125 -14.265625 C 3.789062 -14.671875 4.617188 -14.988281 5.515625 -15.21875 C 6.410156 -15.457031 7.3125 -15.578125 8.21875 -15.578125 C 10.050781 -15.578125 11.40625 -15.171875 12.28125 -14.359375 C 13.164062 -13.546875 13.609375 -12.242188 13.609375 -10.453125 L 13.609375 0 Z M 6.640625 -1.640625 C 8.085938 -1.640625 9.222656 -2.035156 10.046875 -2.828125 C 10.867188 -3.617188 11.28125 -4.726562 11.28125 -6.15625 L 11.28125 -7.53125 L 8.96875 -7.4375 C 7.113281 -7.375 5.78125 -7.085938 4.96875 -6.578125 C 4.15625 -6.066406 3.75 -5.273438 3.75 -4.203125 C 3.75 -3.367188 4 -2.734375 4.5 -2.296875 C 5.007812 -1.859375 5.722656 -1.640625 6.640625 -1.640625 Z M 6.640625 -1.640625 "/></g></g></g><g fill="#000000" fill-opacity="1"><g transform="translate(234.921899, 995.007422)"><g><path d="M 13.890625 0 L 11.53125 0 L 11.53125 -13.34375 L 6.9375 -13.34375 C 6.6875 -10.019531 6.335938 -7.382812 5.890625 -5.4375 C 5.441406 -3.488281 4.859375 -2.0625 4.140625 -1.15625 C 3.429688 -0.25 2.523438 0.203125 1.421875 0.203125 C 0.921875 0.203125 0.519531 0.144531 0.21875 0.03125 L 0.21875 -1.6875 C 0.425781 -1.632812 0.660156 -1.609375 0.921875 -1.609375 C 1.992188 -1.609375 2.847656 -2.738281 3.484375 -5 C 4.117188 -7.269531 4.597656 -10.710938 4.921875 -15.328125 L 13.890625 -15.328125 Z M 13.890625 0 "/></g></g></g><g fill="#000000" fill-opacity="1"><g transform="translate(251.263306, 995.007422)"><g><path d="M 4.640625 -15.328125 L 4.640625 -5.609375 L 4.546875 -3.0625 L 4.5 -2.265625 L 12.796875 -15.328125 L 15.6875 -15.328125 L 15.6875 0 L 13.515625 0 L 13.515625 -9.375 L 13.5625 -11.21875 L 13.640625 -13.03125 L 5.359375 0 L 2.46875 0 L 2.46875 -15.328125 Z M 4.640625 -15.328125 "/></g></g></g><g fill="#000000" fill-opacity="1"><g transform="translate(269.407992, 995.007422)"><g><path d="M 12.796875 -13.34375 L 7.8125 -13.34375 L 7.8125 0 L 5.5 0 L 5.5 -13.34375 L 0.578125 -13.34375 L 0.578125 -15.328125 L 12.796875 -15.328125 Z M 12.796875 -13.34375 "/></g></g></g><g fill="#000000" fill-opacity="1"><g transform="translate(282.771875, 995.007422)"><g><path d="M 4.78125 -8.984375 L 9.515625 -8.984375 C 13.429688 -8.984375 15.390625 -7.546875 15.390625 -4.671875 C 15.390625 -3.160156 14.878906 -2.003906 13.859375 -1.203125 C 12.835938 -0.398438 11.34375 0 9.375 0 L 2.46875 0 L 2.46875 -15.328125 L 4.78125 -15.328125 Z M 4.78125 -7 L 4.78125 -1.9375 L 9.265625 -1.9375 C 10.492188 -1.9375 11.429688 -2.148438 12.078125 -2.578125 C 12.734375 -3.015625 13.0625 -3.664062 13.0625 -4.53125 C 13.0625 -5.375 12.757812 -5.992188 12.15625 -6.390625 C 11.550781 -6.796875 10.5625 -7 9.1875 -7 Z M 4.78125 -7 "/></g></g></g><g fill="#000000" fill-opacity="1"><g transform="translate(299.714371, 995.007422)"><g/></g></g><g fill="#000000" fill-opacity="1"><g transform="translate(307.151176, 995.007422)"><g><path d="M 11.6875 -13.34375 L 4.78125 -13.34375 L 4.78125 0 L 2.46875 0 L 2.46875 -15.328125 L 11.6875 -15.328125 Z M 11.6875 -13.34375 "/></g></g></g><g fill="#000000" fill-opacity="1"><g transform="translate(319.410727, 995.007422)"><g><path d="M 15.6875 -7.671875 C 15.6875 -5.179688 15.054688 -3.234375 13.796875 -1.828125 C 12.546875 -0.421875 10.8125 0.28125 8.59375 0.28125 C 7.21875 0.28125 6 -0.0390625 4.9375 -0.6875 C 3.875 -1.332031 3.050781 -2.253906 2.46875 -3.453125 C 1.894531 -4.660156 1.609375 -6.066406 1.609375 -7.671875 C 1.609375 -10.171875 2.234375 -12.117188 3.484375 -13.515625 C 4.734375 -14.910156 6.46875 -15.609375 8.6875 -15.609375 C 10.832031 -15.609375 12.535156 -14.894531 13.796875 -13.46875 C 15.054688 -12.039062 15.6875 -10.109375 15.6875 -7.671875 Z M 4.015625 -7.671875 C 4.015625 -5.710938 4.40625 -4.222656 5.1875 -3.203125 C 5.96875 -2.179688 7.117188 -1.671875 8.640625 -1.671875 C 10.160156 -1.671875 11.3125 -2.179688 12.09375 -3.203125 C 12.882812 -4.222656 13.28125 -5.710938 13.28125 -7.671875 C 13.28125 -9.617188 12.882812 -11.097656 12.09375 -12.109375 C 11.3125 -13.128906 10.148438 -13.640625 8.609375 -13.640625 C 7.085938 -13.640625 5.941406 -13.140625 5.171875 -12.140625 C 4.398438 -11.140625 4.015625 -9.648438 4.015625 -7.671875 Z M 4.015625 -7.671875 "/></g></g></g><g fill="#000000" fill-opacity="1"><g transform="translate(336.702702, 995.007422)"><g><path d="M 9.59375 0.28125 C 8.59375 0.28125 7.679688 0.0976562 6.859375 -0.265625 C 6.035156 -0.640625 5.34375 -1.207031 4.78125 -1.96875 L 4.609375 -1.96875 C 4.722656 -1.070312 4.78125 -0.222656 4.78125 0.578125 L 4.78125 6.875 L 2.46875 6.875 L 2.46875 -15.328125 L 4.34375 -15.328125 L 4.671875 -13.234375 L 4.78125 -13.234375 C 5.375 -14.066406 6.066406 -14.671875 6.859375 -15.046875 C 7.660156 -15.421875 8.570312 -15.609375 9.59375 -15.609375 C 11.625 -15.609375 13.191406 -14.910156 14.296875 -13.515625 C 15.398438 -12.128906 15.953125 -10.179688 15.953125 -7.671875 C 15.953125 -5.160156 15.390625 -3.207031 14.265625 -1.8125 C 13.148438 -0.414062 11.59375 0.28125 9.59375 0.28125 Z M 9.265625 -13.640625 C 7.691406 -13.640625 6.554688 -13.203125 5.859375 -12.328125 C 5.160156 -11.460938 4.800781 -10.082031 4.78125 -8.1875 L 4.78125 -7.671875 C 4.78125 -5.523438 5.140625 -3.988281 5.859375 -3.0625 C 6.578125 -2.132812 7.726562 -1.671875 9.3125 -1.671875 C 10.632812 -1.671875 11.671875 -2.203125 12.421875 -3.265625 C 13.171875 -4.335938 13.546875 -5.816406 13.546875 -7.703125 C 13.546875 -9.617188 13.171875 -11.085938 12.421875 -12.109375 C 11.671875 -13.128906 10.617188 -13.640625 9.265625 -13.640625 Z M 9.265625 -13.640625 "/></g></g></g><g fill="#000000" fill-opacity="1"><g transform="translate(354.246298, 995.007422)"><g><path d="M 3.234375 0 L 0.515625 0 L 4.921875 -6.46875 C 3.734375 -6.726562 2.828125 -7.234375 2.203125 -7.984375 C 1.578125 -8.742188 1.265625 -9.691406 1.265625 -10.828125 C 1.265625 -12.222656 1.734375 -13.320312 2.671875 -14.125 C 3.609375 -14.925781 4.921875 -15.328125 6.609375 -15.328125 L 13.4375 -15.328125 L 13.4375 0 L 11.125 0 L 11.125 -6.125 L 7.25 -6.125 Z M 3.53125 -10.796875 C 3.53125 -9.023438 4.816406 -8.140625 7.390625 -8.140625 L 11.125 -8.140625 L 11.125 -13.3125 L 6.90625 -13.3125 C 4.65625 -13.3125 3.53125 -12.472656 3.53125 -10.796875 Z M 3.53125 -10.796875 "/></g></g></g><g fill="#000000" fill-opacity="1"><g transform="translate(370.140378, 995.007422)"><g><path d="M 4.5 -15.328125 L 4.5 -9.734375 C 4.5 -7.941406 5.519531 -7.046875 7.5625 -7.046875 C 8.414062 -7.046875 9.226562 -7.175781 10 -7.4375 C 10.769531 -7.695312 11.644531 -8.140625 12.625 -8.765625 L 12.625 -15.328125 L 14.953125 -15.328125 L 14.953125 0 L 12.625 0 L 12.625 -6.9375 C 11.644531 -6.257812 10.738281 -5.785156 9.90625 -5.515625 C 9.070312 -5.242188 8.128906 -5.109375 7.078125 -5.109375 C 5.546875 -5.109375 4.347656 -5.507812 3.484375 -6.3125 C 2.617188 -7.113281 2.1875 -8.195312 2.1875 -9.5625 L 2.1875 -15.328125 Z M 4.5 -15.328125 "/></g></g></g><g fill="#000000" fill-opacity="1"><g transform="translate(387.544185, 995.007422)"><g><path d="M 0.03125 -15.328125 L 2.515625 -15.328125 L 5.875 -6.59375 C 6.613281 -4.59375 7.070312 -3.148438 7.25 -2.265625 L 7.359375 -2.265625 C 7.472656 -2.742188 7.722656 -3.554688 8.109375 -4.703125 C 8.503906 -5.859375 9.773438 -9.398438 11.921875 -15.328125 L 14.40625 -15.328125 L 7.8125 2.125 C 7.164062 3.851562 6.40625 5.078125 5.53125 5.796875 C 4.65625 6.515625 3.585938 6.875 2.328125 6.875 C 1.617188 6.875 0.914062 6.796875 0.21875 6.640625 L 0.21875 4.78125 C 0.738281 4.894531 1.3125 4.953125 1.9375 4.953125 C 3.53125 4.953125 4.671875 4.054688 5.359375 2.265625 L 6.203125 0.078125 Z M 0.03125 -15.328125 "/></g></g></g><g fill="#000000" fill-opacity="1"><g transform="translate(401.970468, 995.007422)"><g><path d="M 22.1875 -7.671875 C 22.1875 -5.171875 21.585938 -3.21875 20.390625 -1.8125 C 19.191406 -0.414062 17.550781 0.28125 15.46875 0.28125 C 13.476562 0.28125 11.898438 -0.335938 10.734375 -1.578125 C 9.566406 -2.828125 8.921875 -4.601562 8.796875 -6.90625 L 4.78125 -6.90625 L 4.78125 0 L 2.46875 0 L 2.46875 -15.328125 L 4.78125 -15.328125 L 4.78125 -8.90625 L 8.828125 -8.90625 C 9.015625 -11.03125 9.691406 -12.675781 10.859375 -13.84375 C 12.035156 -15.019531 13.585938 -15.609375 15.515625 -15.609375 C 17.566406 -15.609375 19.191406 -14.894531 20.390625 -13.46875 C 21.585938 -12.050781 22.1875 -10.117188 22.1875 -7.671875 Z M 11.203125 -7.671875 C 11.203125 -5.710938 11.539062 -4.222656 12.21875 -3.203125 C 12.90625 -2.179688 14 -1.671875 15.5 -1.671875 C 16.96875 -1.671875 18.046875 -2.164062 18.734375 -3.15625 C 19.429688 -4.144531 19.78125 -5.648438 19.78125 -7.671875 C 19.78125 -9.628906 19.441406 -11.113281 18.765625 -12.125 C 18.085938 -13.132812 17 -13.640625 15.5 -13.640625 C 14 -13.640625 12.90625 -13.132812 12.21875 -12.125 C 11.539062 -11.113281 11.203125 -9.628906 11.203125 -7.671875 Z M 11.203125 -7.671875 "/></g></g></g><g fill="#000000" fill-opacity="1"><g transform="translate(215.467494, 1034.757418)"><g><path d="M 14.890625 -11.484375 C 14.890625 -10.484375 14.601562 -9.722656 14.03125 -9.203125 C 13.457031 -8.691406 12.65625 -8.347656 11.625 -8.171875 L 11.625 -8.046875 C 12.925781 -7.867188 13.878906 -7.484375 14.484375 -6.890625 C 15.085938 -6.304688 15.390625 -5.5 15.390625 -4.46875 C 15.390625 -3.039062 14.863281 -1.9375 13.8125 -1.15625 C 12.757812 -0.382812 11.226562 0 9.21875 0 L 2.46875 0 L 2.46875 -15.328125 L 9.1875 -15.328125 C 12.988281 -15.328125 14.890625 -14.046875 14.890625 -11.484375 Z M 13.0625 -4.609375 C 13.0625 -5.441406 12.742188 -6.046875 12.109375 -6.421875 C 11.484375 -6.804688 10.441406 -7 8.984375 -7 L 4.78125 -7 L 4.78125 -1.9375 L 9.046875 -1.9375 C 11.722656 -1.9375 13.0625 -2.828125 13.0625 -4.609375 Z M 12.625 -11.25 C 12.625 -12 12.335938 -12.53125 11.765625 -12.84375 C 11.191406 -13.15625 10.320312 -13.3125 9.15625 -13.3125 L 4.78125 -13.3125 L 4.78125 -8.984375 L 8.71875 -8.984375 C 10.144531 -8.984375 11.148438 -9.160156 11.734375 -9.515625 C 12.328125 -9.878906 12.625 -10.457031 12.625 -11.25 Z M 12.625 -11.25 "/></g></g></g><g fill="#000000" fill-opacity="1"><g transform="translate(231.752985, 1034.757418)"><g><path d="M 15.6875 -7.671875 C 15.6875 -5.179688 15.054688 -3.234375 13.796875 -1.828125 C 12.546875 -0.421875 10.8125 0.28125 8.59375 0.28125 C 7.21875 0.28125 6 -0.0390625 4.9375 -0.6875 C 3.875 -1.332031 3.050781 -2.253906 2.46875 -3.453125 C 1.894531 -4.660156 1.609375 -6.066406 1.609375 -7.671875 C 1.609375 -10.171875 2.234375 -12.117188 3.484375 -13.515625 C 4.734375 -14.910156 6.46875 -15.609375 8.6875 -15.609375 C 10.832031 -15.609375 12.535156 -14.894531 13.796875 -13.46875 C 15.054688 -12.039062 15.6875 -10.109375 15.6875 -7.671875 Z M 4.015625 -7.671875 C 4.015625 -5.710938 4.40625 -4.222656 5.1875 -3.203125 C 5.96875 -2.179688 7.117188 -1.671875 8.640625 -1.671875 C 10.160156 -1.671875 11.3125 -2.179688 12.09375 -3.203125 C 12.882812 -4.222656 13.28125 -5.710938 13.28125 -7.671875 C 13.28125 -9.617188 12.882812 -11.097656 12.09375 -12.109375 C 11.3125 -13.128906 10.148438 -13.640625 8.609375 -13.640625 C 7.085938 -13.640625 5.941406 -13.140625 5.171875 -12.140625 C 4.398438 -11.140625 4.015625 -9.648438 4.015625 -7.671875 Z M 4.015625 -7.671875 "/></g></g></g><g fill="#000000" fill-opacity="1"><g transform="translate(249.04496, 1034.757418)"><g><path d="M 15.78125 5.296875 L 13.515625 5.296875 L 13.515625 0 L 2.8125 0 L 2.8125 5.296875 L 0.578125 5.296875 L 0.578125 -2 L 1.78125 -2 C 3.03125 -3.695312 4.007812 -5.6875 4.71875 -7.96875 C 5.425781 -10.25 5.789062 -12.703125 5.8125 -15.328125 L 13.578125 -15.328125 L 13.578125 -2 L 15.78125 -2 Z M 11.34375 -2 L 11.34375 -13.5 L 7.90625 -13.5 C 7.78125 -11.425781 7.378906 -9.328125 6.703125 -7.203125 C 6.023438 -5.085938 5.1875 -3.351562 4.1875 -2 Z M 11.34375 -2 "/></g></g></g><g fill="#000000" fill-opacity="1"><g transform="translate(265.414324, 1034.757418)"><g><path d="M 0.03125 -15.328125 L 2.515625 -15.328125 L 5.875 -6.59375 C 6.613281 -4.59375 7.070312 -3.148438 7.25 -2.265625 L 7.359375 -2.265625 C 7.472656 -2.742188 7.722656 -3.554688 8.109375 -4.703125 C 8.503906 -5.859375 9.773438 -9.398438 11.921875 -15.328125 L 14.40625 -15.328125 L 7.8125 2.125 C 7.164062 3.851562 6.40625 5.078125 5.53125 5.796875 C 4.65625 6.515625 3.585938 6.875 2.328125 6.875 C 1.617188 6.875 0.914062 6.796875 0.21875 6.640625 L 0.21875 4.78125 C 0.738281 4.894531 1.3125 4.953125 1.9375 4.953125 C 3.53125 4.953125 4.671875 4.054688 5.359375 2.265625 L 6.203125 0.078125 Z M 0.03125 -15.328125 "/></g></g></g><g fill="#000000" fill-opacity="1"><g transform="translate(279.840608, 1034.757418)"><g/></g></g><g fill="#000000" fill-opacity="1"><g transform="translate(287.277413, 1034.757418)"><g><path d="M 14.890625 -11.484375 C 14.890625 -10.484375 14.601562 -9.722656 14.03125 -9.203125 C 13.457031 -8.691406 12.65625 -8.347656 11.625 -8.171875 L 11.625 -8.046875 C 12.925781 -7.867188 13.878906 -7.484375 14.484375 -6.890625 C 15.085938 -6.304688 15.390625 -5.5 15.390625 -4.46875 C 15.390625 -3.039062 14.863281 -1.9375 13.8125 -1.15625 C 12.757812 -0.382812 11.226562 0 9.21875 0 L 2.46875 0 L 2.46875 -15.328125 L 9.1875 -15.328125 C 12.988281 -15.328125 14.890625 -14.046875 14.890625 -11.484375 Z M 13.0625 -4.609375 C 13.0625 -5.441406 12.742188 -6.046875 12.109375 -6.421875 C 11.484375 -6.804688 10.441406 -7 8.984375 -7 L 4.78125 -7 L 4.78125 -1.9375 L 9.046875 -1.9375 C 11.722656 -1.9375 13.0625 -2.828125 13.0625 -4.609375 Z M 12.625 -11.25 C 12.625 -12 12.335938 -12.53125 11.765625 -12.84375 C 11.191406 -13.15625 10.320312 -13.3125 9.15625 -13.3125 L 4.78125 -13.3125 L 4.78125 -8.984375 L 8.71875 -8.984375 C 10.144531 -8.984375 11.148438 -9.160156 11.734375 -9.515625 C 12.328125 -9.878906 12.625 -10.457031 12.625 -11.25 Z M 12.625 -11.25 "/></g></g></g><g fill="#000000" fill-opacity="1"><g transform="translate(303.562903, 1034.757418)"><g/></g></g><g fill="#000000" fill-opacity="1"><g transform="translate(310.999708, 1034.757418)"><g><path d="M 11.390625 -15.328125 L 13.9375 -15.328125 L 7.328125 -7.921875 L 14.484375 0 L 11.78125 0 L 4.78125 -7.765625 L 4.78125 0 L 2.46875 0 L 2.46875 -15.328125 L 4.78125 -15.328125 L 4.78125 -7.875 Z M 11.390625 -15.328125 "/></g></g></g><g fill="#000000" fill-opacity="1"><g transform="translate(325.859345, 1034.757418)"><g><path d="M 9.59375 0.28125 C 8.59375 0.28125 7.679688 0.0976562 6.859375 -0.265625 C 6.035156 -0.640625 5.34375 -1.207031 4.78125 -1.96875 L 4.609375 -1.96875 C 4.722656 -1.070312 4.78125 -0.222656 4.78125 0.578125 L 4.78125 6.875 L 2.46875 6.875 L 2.46875 -15.328125 L 4.34375 -15.328125 L 4.671875 -13.234375 L 4.78125 -13.234375 C 5.375 -14.066406 6.066406 -14.671875 6.859375 -15.046875 C 7.660156 -15.421875 8.570312 -15.609375 9.59375 -15.609375 C 11.625 -15.609375 13.191406 -14.910156 14.296875 -13.515625 C 15.398438 -12.128906 15.953125 -10.179688 15.953125 -7.671875 C 15.953125 -5.160156 15.390625 -3.207031 14.265625 -1.8125 C 13.148438 -0.414062 11.59375 0.28125 9.59375 0.28125 Z M 9.265625 -13.640625 C 7.691406 -13.640625 6.554688 -13.203125 5.859375 -12.328125 C 5.160156 -11.460938 4.800781 -10.082031 4.78125 -8.1875 L 4.78125 -7.671875 C 4.78125 -5.523438 5.140625 -3.988281 5.859375 -3.0625 C 6.578125 -2.132812 7.726562 -1.671875 9.3125 -1.671875 C 10.632812 -1.671875 11.671875 -2.203125 12.421875 -3.265625 C 13.171875 -4.335938 13.546875 -5.816406 13.546875 -7.703125 C 13.546875 -9.617188 13.171875 -11.085938 12.421875 -12.109375 C 11.671875 -13.128906 10.617188 -13.640625 9.265625 -13.640625 Z M 9.265625 -13.640625 "/></g></g></g><g fill="#000000" fill-opacity="1"><g transform="translate(343.402942, 1034.757418)"><g><path d="M 0.03125 -15.328125 L 2.515625 -15.328125 L 5.875 -6.59375 C 6.613281 -4.59375 7.070312 -3.148438 7.25 -2.265625 L 7.359375 -2.265625 C 7.472656 -2.742188 7.722656 -3.554688 8.109375 -4.703125 C 8.503906 -5.859375 9.773438 -9.398438 11.921875 -15.328125 L 14.40625 -15.328125 L 7.8125 2.125 C 7.164062 3.851562 6.40625 5.078125 5.53125 5.796875 C 4.65625 6.515625 3.585938 6.875 2.328125 6.875 C 1.617188 6.875 0.914062 6.796875 0.21875 6.640625 L 0.21875 4.78125 C 0.738281 4.894531 1.3125 4.953125 1.9375 4.953125 C 3.53125 4.953125 4.671875 4.054688 5.359375 2.265625 L 6.203125 0.078125 Z M 0.03125 -15.328125 "/></g></g></g><g fill="#000000" fill-opacity="1"><g transform="translate(357.829225, 1034.757418)"><g><path d="M 9.453125 -15.296875 L 11.59375 -15.296875 L 11.59375 -7.875 L 17.921875 -15.296875 L 20.46875 -15.296875 L 14.0625 -7.875 L 21.015625 0 L 18.328125 0 L 11.59375 -7.765625 L 11.59375 0 L 9.453125 0 L 9.453125 -7.765625 L 2.734375 0 L 0.0625 0 L 7 -7.875 L 0.59375 -15.296875 L 3.140625 -15.296875 L 9.453125 -7.875 Z M 9.453125 -15.296875 "/></g></g></g><g fill="#000000" fill-opacity="1"><g transform="translate(378.895518, 1034.757418)"><g><path d="M 11.390625 -15.328125 L 13.9375 -15.328125 L 7.328125 -7.921875 L 14.484375 0 L 11.78125 0 L 4.78125 -7.765625 L 4.78125 0 L 2.46875 0 L 2.46875 -15.328125 L 4.78125 -15.328125 L 4.78125 -7.875 Z M 11.390625 -15.328125 "/></g></g></g><g fill="#000000" fill-opacity="1"><g transform="translate(393.755155, 1034.757418)"><g><path d="M 0.03125 -15.328125 L 2.515625 -15.328125 L 5.875 -6.59375 C 6.613281 -4.59375 7.070312 -3.148438 7.25 -2.265625 L 7.359375 -2.265625 C 7.472656 -2.742188 7.722656 -3.554688 8.109375 -4.703125 C 8.503906 -5.859375 9.773438 -9.398438 11.921875 -15.328125 L 14.40625 -15.328125 L 7.8125 2.125 C 7.164062 3.851562 6.40625 5.078125 5.53125 5.796875 C 4.65625 6.515625 3.585938 6.875 2.328125 6.875 C 1.617188 6.875 0.914062 6.796875 0.21875 6.640625 L 0.21875 4.78125 C 0.738281 4.894531 1.3125 4.953125 1.9375 4.953125 C 3.53125 4.953125 4.671875 4.054688 5.359375 2.265625 L 6.203125 0.078125 Z M 0.03125 -15.328125 "/></g></g></g><path stroke-linecap="butt" transform="matrix(0, 0.75, -0.75, 0, 308.842516, 1100.017397)" fill="none" stroke-linejoin="miter" d="M -0.00236202 3.998354 L 34.685141 3.998354 " stroke="#000000" stroke-width="8" stroke-opacity="1" stroke-miterlimit="4"/><path stroke-linecap="round" transform="matrix(0, 0.75, -0.75, 0, 308.842516, 1100.017397)" fill-opacity="1" fill="#000000" fill-rule="nonzero" stroke-linejoin="round" d="M 36.685141 -8.001647 L 52.685143 3.998354 L 36.685141 15.998355 Z M 36.685141 -8.001647 " stroke="#000000" stroke-width="8" stroke-opacity="1" stroke-miterlimit="4"/></svg>