<svg xmlns="http://www.w3.org/2000/svg" xmlns:xlink="http://www.w3.org/1999/xlink" width="800" zoomAndPan="magnify" viewBox="0 0 600 1439.999935" height="1920" preserveAspectRatio="xMidYMid meet" version="1.0"><defs><g/><clipPath id="b7a4ba4433"><path d="M 191.777344 65.695312 L 429 65.695312 L 429 208.261719 L 191.777344 208.261719 Z M 191.777344 65.695312 " clip-rule="nonzero"/></clipPath><clipPath id="b47b58f413"><path d="M 204.535156 65.695312 L 415.71875 65.695312 C 419.101562 65.695312 422.347656 67.039062 424.738281 69.433594 C 427.132812 71.828125 428.476562 75.070312 428.476562 78.457031 L 428.476562 195.503906 C 428.476562 198.886719 427.132812 202.132812 424.738281 204.523438 C 422.347656 206.917969 419.101562 208.261719 415.71875 208.261719 L 204.535156 208.261719 C 201.152344 208.261719 197.90625 206.917969 195.515625 204.523438 C 193.121094 202.132812 191.777344 198.886719 191.777344 195.503906 L 191.777344 78.457031 C 191.777344 75.070312 193.121094 71.828125 195.515625 69.433594 C 197.90625 67.039062 201.152344 65.695312 204.535156 65.695312 Z M 204.535156 65.695312 " clip-rule="nonzero"/></clipPath><clipPath id="26a3e1576f"><path d="M 0.777344 0.695312 L 237.640625 0.695312 L 237.640625 143.261719 L 0.777344 143.261719 Z M 0.777344 0.695312 " clip-rule="nonzero"/></clipPath><clipPath id="3d22da98c5"><path d="M 13.535156 0.695312 L 224.71875 0.695312 C 228.101562 0.695312 231.347656 2.039062 233.738281 4.433594 C 236.132812 6.828125 237.476562 10.070312 237.476562 13.457031 L 237.476562 130.503906 C 237.476562 133.886719 236.132812 137.132812 233.738281 139.523438 C 231.347656 141.917969 228.101562 143.261719 224.71875 143.261719 L 13.535156 143.261719 C 10.152344 143.261719 6.90625 141.917969 4.515625 139.523438 C 2.121094 137.132812 0.777344 133.886719 0.777344 130.503906 L 0.777344 13.457031 C 0.777344 10.070312 2.121094 6.828125 4.515625 4.433594 C 6.90625 2.039062 10.152344 0.695312 13.535156 0.695312 Z M 13.535156 0.695312 " clip-rule="nonzero"/></clipPath><clipPath id="16cd8760d0"><rect x="0" width="238" y="0" height="144"/></clipPath><clipPath id="d188548ef7"><path d="M 191.777344 286.683594 L 429 286.683594 L 429 429.25 L 191.777344 429.25 Z M 191.777344 286.683594 " clip-rule="nonzero"/></clipPath><clipPath id="de6bfde4d8"><path d="M 204.535156 286.683594 L 415.71875 286.683594 C 419.101562 286.683594 422.347656 288.027344 424.738281 290.421875 C 427.132812 292.8125 428.476562 296.058594 428.476562 299.445312 L 428.476562 416.492188 C 428.476562 419.875 427.132812 423.121094 424.738281 425.511719 C 422.347656 427.90625 419.101562 429.25 415.71875 429.25 L 204.535156 429.25 C 201.152344 429.25 197.90625 427.90625 195.515625 425.511719 C 193.121094 423.121094 191.777344 419.875 191.777344 416.492188 L 191.777344 299.445312 C 191.777344 296.058594 193.121094 292.8125 195.515625 290.421875 C 197.90625 288.027344 201.152344 286.683594 204.535156 286.683594 Z M 204.535156 286.683594 " clip-rule="nonzero"/></clipPath><clipPath id="6f866a0799"><path d="M 0.777344 0.683594 L 237.640625 0.683594 L 237.640625 143.25 L 0.777344 143.25 Z M 0.777344 0.683594 " clip-rule="nonzero"/></clipPath><clipPath id="64c8503af9"><path d="M 13.535156 0.683594 L 224.71875 0.683594 C 228.101562 0.683594 231.347656 2.027344 233.738281 4.421875 C 236.132812 6.8125 237.476562 10.058594 237.476562 13.445312 L 237.476562 130.492188 C 237.476562 133.875 236.132812 137.121094 233.738281 139.511719 C 231.347656 141.90625 228.101562 143.25 224.71875 143.25 L 13.535156 143.25 C 10.152344 143.25 6.90625 141.90625 4.515625 139.511719 C 2.121094 137.121094 0.777344 133.875 0.777344 130.492188 L 0.777344 13.445312 C 0.777344 10.058594 2.121094 6.8125 4.515625 4.421875 C 6.90625 2.027344 10.152344 0.683594 13.535156 0.683594 Z M 13.535156 0.683594 " clip-rule="nonzero"/></clipPath><clipPath id="eb14537130"><rect x="0" width="238" y="0" height="144"/></clipPath><clipPath id="7856be8297"><path d="M 194.769531 506.449219 L 432 506.449219 L 432 649.015625 L 194.769531 649.015625 Z M 194.769531 506.449219 " clip-rule="nonzero"/></clipPath><clipPath id="70a0fbf777"><path d="M 207.53125 506.449219 L 418.710938 506.449219 C 422.09375 506.449219 425.339844 507.792969 427.734375 510.1875 C 430.125 512.578125 431.46875 515.824219 431.46875 519.207031 L 431.46875 636.253906 C 431.46875 639.640625 430.125 642.882812 427.734375 645.277344 C 425.339844 647.671875 422.09375 649.015625 418.710938 649.015625 L 207.53125 649.015625 C 204.144531 649.015625 200.898438 647.671875 198.507812 645.277344 C 196.113281 642.882812 194.769531 639.640625 194.769531 636.253906 L 194.769531 519.207031 C 194.769531 515.824219 196.113281 512.578125 198.507812 510.1875 C 200.898438 507.792969 204.144531 506.449219 207.53125 506.449219 Z M 207.53125 506.449219 " clip-rule="nonzero"/></clipPath><clipPath id="31a4eb7171"><path d="M 0.769531 0.449219 L 237.519531 0.449219 L 237.519531 143.015625 L 0.769531 143.015625 Z M 0.769531 0.449219 " clip-rule="nonzero"/></clipPath><clipPath id="050f04b1ba"><path d="M 13.53125 0.449219 L 224.710938 0.449219 C 228.09375 0.449219 231.339844 1.792969 233.734375 4.1875 C 236.125 6.578125 237.46875 9.824219 237.46875 13.207031 L 237.46875 130.253906 C 237.46875 133.640625 236.125 136.882812 233.734375 139.277344 C 231.339844 141.671875 228.09375 143.015625 224.710938 143.015625 L 13.53125 143.015625 C 10.144531 143.015625 6.898438 141.671875 4.507812 139.277344 C 2.113281 136.882812 0.769531 133.640625 0.769531 130.253906 L 0.769531 13.207031 C 0.769531 9.824219 2.113281 6.578125 4.507812 4.1875 C 6.898438 1.792969 10.144531 0.449219 13.53125 0.449219 Z M 13.53125 0.449219 " clip-rule="nonzero"/></clipPath><clipPath id="7dfec685e2"><rect x="0" width="238" y="0" height="144"/></clipPath><clipPath id="830b76386b"><path d="M 191.777344 717.007812 L 431.800781 717.007812 L 431.800781 859.574219 L 191.777344 859.574219 Z M 191.777344 717.007812 " clip-rule="nonzero"/></clipPath><clipPath id="53a9ce6118"><path d="M 204.535156 717.007812 L 418.710938 717.007812 C 422.09375 717.007812 425.339844 718.351562 427.734375 720.746094 C 430.125 723.136719 431.46875 726.382812 431.46875 729.769531 L 431.46875 846.8125 C 431.46875 850.199219 430.125 853.445312 427.734375 855.835938 C 425.339844 858.230469 422.09375 859.574219 418.710938 859.574219 L 204.535156 859.574219 C 201.152344 859.574219 197.90625 858.230469 195.515625 855.835938 C 193.121094 853.445312 191.777344 850.199219 191.777344 846.8125 L 191.777344 729.769531 C 191.777344 726.382812 193.121094 723.136719 195.515625 720.746094 C 197.90625 718.351562 201.152344 717.007812 204.535156 717.007812 Z M 204.535156 717.007812 " clip-rule="nonzero"/></clipPath><clipPath id="546783d2f2"><path d="M 0.777344 0.0078125 L 240.519531 0.0078125 L 240.519531 142.574219 L 0.777344 142.574219 Z M 0.777344 0.0078125 " clip-rule="nonzero"/></clipPath><clipPath id="8f014c782a"><path d="M 13.535156 0.0078125 L 227.710938 0.0078125 C 231.09375 0.0078125 234.339844 1.351562 236.734375 3.746094 C 239.125 6.136719 240.46875 9.382812 240.46875 12.769531 L 240.46875 129.8125 C 240.46875 133.199219 239.125 136.445312 236.734375 138.835938 C 234.339844 141.230469 231.09375 142.574219 227.710938 142.574219 L 13.535156 142.574219 C 10.152344 142.574219 6.90625 141.230469 4.515625 138.835938 C 2.121094 136.445312 0.777344 133.199219 0.777344 129.8125 L 0.777344 12.769531 C 0.777344 9.382812 2.121094 6.136719 4.515625 3.746094 C 6.90625 1.351562 10.152344 0.0078125 13.535156 0.0078125 Z M 13.535156 0.0078125 " clip-rule="nonzero"/></clipPath><clipPath id="c3bcf54b89"><rect x="0" width="241" y="0" height="143"/></clipPath><clipPath id="484ac57410"><path d="M 193.480469 1160.480469 L 430.71875 1160.480469 L 430.71875 1303.046875 L 193.480469 1303.046875 Z M 193.480469 1160.480469 " clip-rule="nonzero"/></clipPath><clipPath id="27ab55433b"><path d="M 206.242188 1160.480469 L 417.421875 1160.480469 C 420.804688 1160.480469 424.050781 1161.824219 426.445312 1164.21875 C 428.835938 1166.609375 430.183594 1169.855469 430.183594 1173.238281 L 430.183594 1290.285156 C 430.183594 1293.671875 428.835938 1296.917969 426.445312 1299.308594 C 424.050781 1301.703125 420.804688 1303.046875 417.421875 1303.046875 L 206.242188 1303.046875 C 202.855469 1303.046875 199.613281 1301.703125 197.21875 1299.308594 C 194.824219 1296.917969 193.480469 1293.671875 193.480469 1290.285156 L 193.480469 1173.238281 C 193.480469 1169.855469 194.824219 1166.609375 197.21875 1164.21875 C 199.613281 1161.824219 202.855469 1160.480469 206.242188 1160.480469 Z M 206.242188 1160.480469 " clip-rule="nonzero"/></clipPath><clipPath id="d15869dc60"><path d="M 0.480469 0.480469 L 237.320312 0.480469 L 237.320312 143.046875 L 0.480469 143.046875 Z M 0.480469 0.480469 " clip-rule="nonzero"/></clipPath><clipPath id="dc5e75b101"><path d="M 13.242188 0.480469 L 224.421875 0.480469 C 227.804688 0.480469 231.050781 1.824219 233.445312 4.21875 C 235.835938 6.609375 237.183594 9.855469 237.183594 13.238281 L 237.183594 130.285156 C 237.183594 133.671875 235.835938 136.917969 233.445312 139.308594 C 231.050781 141.703125 227.804688 143.046875 224.421875 143.046875 L 13.242188 143.046875 C 9.855469 143.046875 6.613281 141.703125 4.21875 139.308594 C 1.824219 136.917969 0.480469 133.671875 0.480469 130.285156 L 0.480469 13.238281 C 0.480469 9.855469 1.824219 6.609375 4.21875 4.21875 C 6.613281 1.824219 9.855469 0.480469 13.242188 0.480469 Z M 13.242188 0.480469 " clip-rule="nonzero"/></clipPath><clipPath id="036958dceb"><rect x="0" width="238" y="0" height="144"/></clipPath><clipPath id="c21c5608af"><path d="M 191.777344 933.507812 L 429 933.507812 L 429 1076.074219 L 191.777344 1076.074219 Z M 191.777344 933.507812 " clip-rule="nonzero"/></clipPath><clipPath id="79e8d201b3"><path d="M 204.535156 933.507812 L 415.71875 933.507812 C 419.101562 933.507812 422.347656 934.851562 424.738281 937.246094 C 427.132812 939.636719 428.476562 942.882812 428.476562 946.265625 L 428.476562 1063.3125 C 428.476562 1066.699219 427.132812 1069.941406 424.738281 1072.335938 C 422.347656 1074.730469 419.101562 1076.074219 415.71875 1076.074219 L 204.535156 1076.074219 C 201.152344 1076.074219 197.90625 1074.730469 195.515625 1072.335938 C 193.121094 1069.941406 191.777344 1066.699219 191.777344 1063.3125 L 191.777344 946.265625 C 191.777344 942.882812 193.121094 939.636719 195.515625 937.246094 C 197.90625 934.851562 201.152344 933.507812 204.535156 933.507812 Z M 204.535156 933.507812 " clip-rule="nonzero"/></clipPath><clipPath id="681c10919b"><path d="M 0.777344 0.507812 L 237.640625 0.507812 L 237.640625 143.074219 L 0.777344 143.074219 Z M 0.777344 0.507812 " clip-rule="nonzero"/></clipPath><clipPath id="f11a121e6c"><path d="M 13.535156 0.507812 L 224.71875 0.507812 C 228.101562 0.507812 231.347656 1.851562 233.738281 4.246094 C 236.132812 6.636719 237.476562 9.882812 237.476562 13.265625 L 237.476562 130.3125 C 237.476562 133.699219 236.132812 136.941406 233.738281 139.335938 C 231.347656 141.730469 228.101562 143.074219 224.71875 143.074219 L 13.535156 143.074219 C 10.152344 143.074219 6.90625 141.730469 4.515625 139.335938 C 2.121094 136.941406 0.777344 133.699219 0.777344 130.3125 L 0.777344 13.265625 C 0.777344 9.882812 2.121094 6.636719 4.515625 4.246094 C 6.90625 1.851562 10.152344 0.507812 13.535156 0.507812 Z M 13.535156 0.507812 " clip-rule="nonzero"/></clipPath><clipPath id="117c7bc1fc"><rect x="0" width="238" y="0" height="144"/></clipPath></defs><g clip-path="url(#b7a4ba4433)"><g clip-path="url(#b47b58f413)"><g transform="matrix(1, 0, 0, 1, 191, 65)"><g clip-path="url(#16cd8760d0)"><g clip-path="url(#26a3e1576f)"><g clip-path="url(#3d22da98c5)"><path fill="#d9d9d9" d="M 0.777344 0.695312 L 237.457031 0.695312 L 237.457031 143.261719 L 0.777344 143.261719 Z M 0.777344 0.695312 " fill-opacity="1" fill-rule="nonzero"/></g></g></g></g></g></g><g fill="#000000" fill-opacity="1"><g transform="translate(258.117223, 147.446233)"><g><path d="M 18.328125 0 L 15.953125 0 L 15.953125 -9.625 L 5.1875 -9.625 L 5.1875 0 L 2.8125 0 L 2.8125 -20.453125 L 5.1875 -20.453125 L 5.1875 -11.75 L 15.953125 -11.75 L 15.953125 -20.453125 L 18.328125 -20.453125 Z M 18.328125 0 "/></g></g></g><g fill="#000000" fill-opacity="1"><g transform="translate(279.239433, 147.446233)"><g><path d="M 11.890625 0 L 11.421875 -2.1875 L 11.3125 -2.1875 C 10.550781 -1.21875 9.789062 -0.5625 9.03125 -0.21875 C 8.269531 0.113281 7.320312 0.28125 6.1875 0.28125 C 4.664062 0.28125 3.472656 -0.109375 2.609375 -0.890625 C 1.742188 -1.671875 1.3125 -2.785156 1.3125 -4.234375 C 1.3125 -7.328125 3.785156 -8.953125 8.734375 -9.109375 L 11.34375 -9.1875 L 11.34375 -10.140625 C 11.34375 -11.335938 11.082031 -12.222656 10.5625 -12.796875 C 10.050781 -13.367188 9.222656 -13.65625 8.078125 -13.65625 C 6.804688 -13.65625 5.363281 -13.265625 3.75 -12.484375 L 3.03125 -14.265625 C 3.789062 -14.671875 4.617188 -14.988281 5.515625 -15.21875 C 6.410156 -15.457031 7.3125 -15.578125 8.21875 -15.578125 C 10.050781 -15.578125 11.40625 -15.171875 12.28125 -14.359375 C 13.164062 -13.546875 13.609375 -12.242188 13.609375 -10.453125 L 13.609375 0 Z M 6.640625 -1.640625 C 8.085938 -1.640625 9.222656 -2.035156 10.046875 -2.828125 C 10.867188 -3.617188 11.28125 -4.726562 11.28125 -6.15625 L 11.28125 -7.53125 L 8.96875 -7.4375 C 7.113281 -7.375 5.78125 -7.085938 4.96875 -6.578125 C 4.15625 -6.066406 3.75 -5.273438 3.75 -4.203125 C 3.75 -3.367188 4 -2.734375 4.5 -2.296875 C 5.007812 -1.859375 5.722656 -1.640625 6.640625 -1.640625 Z M 6.640625 -1.640625 "/></g></g></g><g fill="#000000" fill-opacity="1"><g transform="translate(295.16147, 147.446233)"><g><path d="M 4.5 -15.328125 L 4.5 -9.734375 C 4.5 -7.941406 5.519531 -7.046875 7.5625 -7.046875 C 8.414062 -7.046875 9.226562 -7.175781 10 -7.4375 C 10.769531 -7.695312 11.644531 -8.140625 12.625 -8.765625 L 12.625 -15.328125 L 14.953125 -15.328125 L 14.953125 0 L 12.625 0 L 12.625 -6.9375 C 11.644531 -6.257812 10.738281 -5.785156 9.90625 -5.515625 C 9.070312 -5.242188 8.128906 -5.109375 7.078125 -5.109375 C 5.546875 -5.109375 4.347656 -5.507812 3.484375 -6.3125 C 2.617188 -7.113281 2.1875 -8.195312 2.1875 -9.5625 L 2.1875 -15.328125 Z M 4.5 -15.328125 "/></g></g></g><g fill="#000000" fill-opacity="1"><g transform="translate(312.565277, 147.446233)"><g><path d="M 11.890625 0 L 11.421875 -2.1875 L 11.3125 -2.1875 C 10.550781 -1.21875 9.789062 -0.5625 9.03125 -0.21875 C 8.269531 0.113281 7.320312 0.28125 6.1875 0.28125 C 4.664062 0.28125 3.472656 -0.109375 2.609375 -0.890625 C 1.742188 -1.671875 1.3125 -2.785156 1.3125 -4.234375 C 1.3125 -7.328125 3.785156 -8.953125 8.734375 -9.109375 L 11.34375 -9.1875 L 11.34375 -10.140625 C 11.34375 -11.335938 11.082031 -12.222656 10.5625 -12.796875 C 10.050781 -13.367188 9.222656 -13.65625 8.078125 -13.65625 C 6.804688 -13.65625 5.363281 -13.265625 3.75 -12.484375 L 3.03125 -14.265625 C 3.789062 -14.671875 4.617188 -14.988281 5.515625 -15.21875 C 6.410156 -15.457031 7.3125 -15.578125 8.21875 -15.578125 C 10.050781 -15.578125 11.40625 -15.171875 12.28125 -14.359375 C 13.164062 -13.546875 13.609375 -12.242188 13.609375 -10.453125 L 13.609375 0 Z M 6.640625 -1.640625 C 8.085938 -1.640625 9.222656 -2.035156 10.046875 -2.828125 C 10.867188 -3.617188 11.28125 -4.726562 11.28125 -6.15625 L 11.28125 -7.53125 L 8.96875 -7.4375 C 7.113281 -7.375 5.78125 -7.085938 4.96875 -6.578125 C 4.15625 -6.066406 3.75 -5.273438 3.75 -4.203125 C 3.75 -3.367188 4 -2.734375 4.5 -2.296875 C 5.007812 -1.859375 5.722656 -1.640625 6.640625 -1.640625 Z M 6.640625 -1.640625 "/></g></g></g><g fill="#000000" fill-opacity="1"><g transform="translate(328.487315, 147.446233)"><g><path d="M 13.890625 0 L 11.53125 0 L 11.53125 -13.34375 L 6.9375 -13.34375 C 6.6875 -10.019531 6.335938 -7.382812 5.890625 -5.4375 C 5.441406 -3.488281 4.859375 -2.0625 4.140625 -1.15625 C 3.429688 -0.25 2.523438 0.203125 1.421875 0.203125 C 0.921875 0.203125 0.519531 0.144531 0.21875 0.03125 L 0.21875 -1.6875 C 0.425781 -1.632812 0.660156 -1.609375 0.921875 -1.609375 C 1.992188 -1.609375 2.847656 -2.738281 3.484375 -5 C 4.117188 -7.269531 4.597656 -10.710938 4.921875 -15.328125 L 13.890625 -15.328125 Z M 13.890625 0 "/></g></g></g><g fill="#000000" fill-opacity="1"><g transform="translate(344.828721, 147.446233)"><g><path d="M 15.6875 -7.671875 C 15.6875 -5.179688 15.054688 -3.234375 13.796875 -1.828125 C 12.546875 -0.421875 10.8125 0.28125 8.59375 0.28125 C 7.21875 0.28125 6 -0.0390625 4.9375 -0.6875 C 3.875 -1.332031 3.050781 -2.253906 2.46875 -3.453125 C 1.894531 -4.660156 1.609375 -6.066406 1.609375 -7.671875 C 1.609375 -10.171875 2.234375 -12.117188 3.484375 -13.515625 C 4.734375 -14.910156 6.46875 -15.609375 8.6875 -15.609375 C 10.832031 -15.609375 12.535156 -14.894531 13.796875 -13.46875 C 15.054688 -12.039062 15.6875 -10.109375 15.6875 -7.671875 Z M 4.015625 -7.671875 C 4.015625 -5.710938 4.40625 -4.222656 5.1875 -3.203125 C 5.96875 -2.179688 7.117188 -1.671875 8.640625 -1.671875 C 10.160156 -1.671875 11.3125 -2.179688 12.09375 -3.203125 C 12.882812 -4.222656 13.28125 -5.710938 13.28125 -7.671875 C 13.28125 -9.617188 12.882812 -11.097656 12.09375 -12.109375 C 11.3125 -13.128906 10.148438 -13.640625 8.609375 -13.640625 C 7.085938 -13.640625 5.941406 -13.140625 5.171875 -12.140625 C 4.398438 -11.140625 4.015625 -9.648438 4.015625 -7.671875 Z M 4.015625 -7.671875 "/></g></g></g><path stroke-linecap="butt" transform="matrix(0, 0.75, -0.75, 0, 314.619421, 226.221083)" fill="none" stroke-linejoin="miter" d="M 0.00209798 3.99777 L 34.684393 3.99777 " stroke="#000000" stroke-width="8" stroke-opacity="1" stroke-miterlimit="4"/><path stroke-linecap="round" transform="matrix(0, 0.75, -0.75, 0, 314.619421, 226.221083)" fill-opacity="1" fill="#000000" fill-rule="nonzero" stroke-linejoin="round" d="M 36.684393 -8.002232 L 52.684394 3.99777 L 36.684393 15.997771 Z M 36.684393 -8.002232 " stroke="#000000" stroke-width="8" stroke-opacity="1" stroke-miterlimit="4"/><g clip-path="url(#d188548ef7)"><g clip-path="url(#de6bfde4d8)"><g transform="matrix(1, 0, 0, 1, 191, 286)"><g clip-path="url(#eb14537130)"><g clip-path="url(#6f866a0799)"><g clip-path="url(#64c8503af9)"><path fill="#88baff" d="M 0.777344 0.683594 L 237.457031 0.683594 L 237.457031 143.25 L 0.777344 143.25 Z M 0.777344 0.683594 " fill-opacity="1" fill-rule="nonzero"/></g></g></g></g></g></g><g fill="#000000" fill-opacity="1"><g transform="translate(269.343784, 368.434285)"><g><path d="M 26.75 0 L 2.8125 0 L 2.8125 -20.453125 L 5.1875 -20.453125 L 5.1875 -2.15625 L 13.578125 -2.15625 L 13.578125 -20.453125 L 15.953125 -20.453125 L 15.953125 -2.15625 L 24.34375 -2.15625 L 24.34375 -20.453125 L 26.75 -20.453125 Z M 26.75 0 "/></g></g></g><g fill="#000000" fill-opacity="1"><g transform="translate(298.895299, 368.434285)"><g><path d="M 11.890625 0 L 11.421875 -2.1875 L 11.3125 -2.1875 C 10.550781 -1.21875 9.789062 -0.5625 9.03125 -0.21875 C 8.269531 0.113281 7.320312 0.28125 6.1875 0.28125 C 4.664062 0.28125 3.472656 -0.109375 2.609375 -0.890625 C 1.742188 -1.671875 1.3125 -2.785156 1.3125 -4.234375 C 1.3125 -7.328125 3.785156 -8.953125 8.734375 -9.109375 L 11.34375 -9.1875 L 11.34375 -10.140625 C 11.34375 -11.335938 11.082031 -12.222656 10.5625 -12.796875 C 10.050781 -13.367188 9.222656 -13.65625 8.078125 -13.65625 C 6.804688 -13.65625 5.363281 -13.265625 3.75 -12.484375 L 3.03125 -14.265625 C 3.789062 -14.671875 4.617188 -14.988281 5.515625 -15.21875 C 6.410156 -15.457031 7.3125 -15.578125 8.21875 -15.578125 C 10.050781 -15.578125 11.40625 -15.171875 12.28125 -14.359375 C 13.164062 -13.546875 13.609375 -12.242188 13.609375 -10.453125 L 13.609375 0 Z M 6.640625 -1.640625 C 8.085938 -1.640625 9.222656 -2.035156 10.046875 -2.828125 C 10.867188 -3.617188 11.28125 -4.726562 11.28125 -6.15625 L 11.28125 -7.53125 L 8.96875 -7.4375 C 7.113281 -7.375 5.78125 -7.085938 4.96875 -6.578125 C 4.15625 -6.066406 3.75 -5.273438 3.75 -4.203125 C 3.75 -3.367188 4 -2.734375 4.5 -2.296875 C 5.007812 -1.859375 5.722656 -1.640625 6.640625 -1.640625 Z M 6.640625 -1.640625 "/></g></g></g><g fill="#000000" fill-opacity="1"><g transform="translate(314.817336, 368.434285)"><g><path d="M 11.6875 -13.34375 L 4.78125 -13.34375 L 4.78125 0 L 2.46875 0 L 2.46875 -15.328125 L 11.6875 -15.328125 Z M 11.6875 -13.34375 "/></g></g></g><g fill="#000000" fill-opacity="1"><g transform="translate(327.076887, 368.434285)"><g/></g></g><g fill="#000000" fill-opacity="1"><g transform="translate(334.513692, 368.434285)"><g><path d="M 10 0 L 7.734375 0 L 7.734375 -14.578125 C 7.734375 -15.785156 7.769531 -16.929688 7.84375 -18.015625 C 7.644531 -17.816406 7.425781 -17.609375 7.1875 -17.390625 C 6.945312 -17.179688 5.835938 -16.273438 3.859375 -14.671875 L 2.625 -16.265625 L 8.046875 -20.453125 L 10 -20.453125 Z M 10 0 "/></g></g></g><g clip-path="url(#7856be8297)"><g clip-path="url(#70a0fbf777)"><g transform="matrix(1, 0, 0, 1, 194, 506)"><g clip-path="url(#7dfec685e2)"><g clip-path="url(#31a4eb7171)"><g clip-path="url(#050f04b1ba)"><path fill="#febb5e" d="M 0.769531 0.449219 L 237.449219 0.449219 L 237.449219 143.015625 L 0.769531 143.015625 Z M 0.769531 0.449219 " fill-opacity="1" fill-rule="nonzero"/></g></g></g></g></g></g><g fill="#000000" fill-opacity="1"><g transform="translate(272.336299, 588.199033)"><g><path d="M 26.75 0 L 2.8125 0 L 2.8125 -20.453125 L 5.1875 -20.453125 L 5.1875 -2.15625 L 13.578125 -2.15625 L 13.578125 -20.453125 L 15.953125 -20.453125 L 15.953125 -2.15625 L 24.34375 -2.15625 L 24.34375 -20.453125 L 26.75 -20.453125 Z M 26.75 0 "/></g></g></g><g fill="#000000" fill-opacity="1"><g transform="translate(301.887813, 588.199033)"><g><path d="M 11.890625 0 L 11.421875 -2.1875 L 11.3125 -2.1875 C 10.550781 -1.21875 9.789062 -0.5625 9.03125 -0.21875 C 8.269531 0.113281 7.320312 0.28125 6.1875 0.28125 C 4.664062 0.28125 3.472656 -0.109375 2.609375 -0.890625 C 1.742188 -1.671875 1.3125 -2.785156 1.3125 -4.234375 C 1.3125 -7.328125 3.785156 -8.953125 8.734375 -9.109375 L 11.34375 -9.1875 L 11.34375 -10.140625 C 11.34375 -11.335938 11.082031 -12.222656 10.5625 -12.796875 C 10.050781 -13.367188 9.222656 -13.65625 8.078125 -13.65625 C 6.804688 -13.65625 5.363281 -13.265625 3.75 -12.484375 L 3.03125 -14.265625 C 3.789062 -14.671875 4.617188 -14.988281 5.515625 -15.21875 C 6.410156 -15.457031 7.3125 -15.578125 8.21875 -15.578125 C 10.050781 -15.578125 11.40625 -15.171875 12.28125 -14.359375 C 13.164062 -13.546875 13.609375 -12.242188 13.609375 -10.453125 L 13.609375 0 Z M 6.640625 -1.640625 C 8.085938 -1.640625 9.222656 -2.035156 10.046875 -2.828125 C 10.867188 -3.617188 11.28125 -4.726562 11.28125 -6.15625 L 11.28125 -7.53125 L 8.96875 -7.4375 C 7.113281 -7.375 5.78125 -7.085938 4.96875 -6.578125 C 4.15625 -6.066406 3.75 -5.273438 3.75 -4.203125 C 3.75 -3.367188 4 -2.734375 4.5 -2.296875 C 5.007812 -1.859375 5.722656 -1.640625 6.640625 -1.640625 Z M 6.640625 -1.640625 "/></g></g></g><g fill="#000000" fill-opacity="1"><g transform="translate(317.809851, 588.199033)"><g><path d="M 11.6875 -13.34375 L 4.78125 -13.34375 L 4.78125 0 L 2.46875 0 L 2.46875 -15.328125 L 11.6875 -15.328125 Z M 11.6875 -13.34375 "/></g></g></g><g fill="#000000" fill-opacity="1"><g transform="translate(330.069402, 588.199033)"><g/></g></g><g fill="#000000" fill-opacity="1"><g transform="translate(337.506207, 588.199033)"><g><path d="M 14.84375 0 L 1.40625 0 L 1.40625 -2 L 6.78125 -7.40625 C 8.425781 -9.070312 9.507812 -10.257812 10.03125 -10.96875 C 10.550781 -11.675781 10.941406 -12.363281 11.203125 -13.03125 C 11.460938 -13.707031 11.59375 -14.429688 11.59375 -15.203125 C 11.59375 -16.296875 11.257812 -17.160156 10.59375 -17.796875 C 9.9375 -18.429688 9.019531 -18.75 7.84375 -18.75 C 7 -18.75 6.195312 -18.609375 5.4375 -18.328125 C 4.675781 -18.054688 3.828125 -17.550781 2.890625 -16.8125 L 1.671875 -18.390625 C 3.546875 -19.953125 5.59375 -20.734375 7.8125 -20.734375 C 9.738281 -20.734375 11.242188 -20.238281 12.328125 -19.25 C 13.421875 -18.269531 13.96875 -16.953125 13.96875 -15.296875 C 13.96875 -14.003906 13.601562 -12.722656 12.875 -11.453125 C 12.15625 -10.179688 10.796875 -8.578125 8.796875 -6.640625 L 4.328125 -2.265625 L 4.328125 -2.15625 L 14.84375 -2.15625 Z M 14.84375 0 "/></g></g></g><path stroke-linecap="butt" transform="matrix(0, 0.75, -0.75, 0, 313.12317, 447.209149)" fill="none" stroke-linejoin="miter" d="M 0.00238443 3.99756 L 34.684679 3.99756 " stroke="#000000" stroke-width="8" stroke-opacity="1" stroke-miterlimit="4"/><path stroke-linecap="round" transform="matrix(0, 0.75, -0.75, 0, 313.12317, 447.209149)" fill-opacity="1" fill="#000000" fill-rule="nonzero" stroke-linejoin="round" d="M 36.684679 -8.002441 L 52.684681 3.99756 L 36.684679 15.997561 Z M 36.684679 -8.002441 " stroke="#000000" stroke-width="8" stroke-opacity="1" stroke-miterlimit="4"/><g clip-path="url(#830b76386b)"><g clip-path="url(#53a9ce6118)"><g transform="matrix(1, 0, 0, 1, 191, 717)"><g clip-path="url(#c3bcf54b89)"><g clip-path="url(#546783d2f2)"><g clip-path="url(#8f014c782a)"><path fill="#fc7fa9" d="M 0.777344 0.0078125 L 240.242188 0.0078125 L 240.242188 142.574219 L 0.777344 142.574219 Z M 0.777344 0.0078125 " fill-opacity="1" fill-rule="nonzero"/></g></g></g></g></g></g><g fill="#000000" fill-opacity="1"><g transform="translate(270.843784, 798.758167)"><g><path d="M 26.75 0 L 2.8125 0 L 2.8125 -20.453125 L 5.1875 -20.453125 L 5.1875 -2.15625 L 13.578125 -2.15625 L 13.578125 -20.453125 L 15.953125 -20.453125 L 15.953125 -2.15625 L 24.34375 -2.15625 L 24.34375 -20.453125 L 26.75 -20.453125 Z M 26.75 0 "/></g></g></g><g fill="#000000" fill-opacity="1"><g transform="translate(300.395299, 798.758167)"><g><path d="M 11.890625 0 L 11.421875 -2.1875 L 11.3125 -2.1875 C 10.550781 -1.21875 9.789062 -0.5625 9.03125 -0.21875 C 8.269531 0.113281 7.320312 0.28125 6.1875 0.28125 C 4.664062 0.28125 3.472656 -0.109375 2.609375 -0.890625 C 1.742188 -1.671875 1.3125 -2.785156 1.3125 -4.234375 C 1.3125 -7.328125 3.785156 -8.953125 8.734375 -9.109375 L 11.34375 -9.1875 L 11.34375 -10.140625 C 11.34375 -11.335938 11.082031 -12.222656 10.5625 -12.796875 C 10.050781 -13.367188 9.222656 -13.65625 8.078125 -13.65625 C 6.804688 -13.65625 5.363281 -13.265625 3.75 -12.484375 L 3.03125 -14.265625 C 3.789062 -14.671875 4.617188 -14.988281 5.515625 -15.21875 C 6.410156 -15.457031 7.3125 -15.578125 8.21875 -15.578125 C 10.050781 -15.578125 11.40625 -15.171875 12.28125 -14.359375 C 13.164062 -13.546875 13.609375 -12.242188 13.609375 -10.453125 L 13.609375 0 Z M 6.640625 -1.640625 C 8.085938 -1.640625 9.222656 -2.035156 10.046875 -2.828125 C 10.867188 -3.617188 11.28125 -4.726562 11.28125 -6.15625 L 11.28125 -7.53125 L 8.96875 -7.4375 C 7.113281 -7.375 5.78125 -7.085938 4.96875 -6.578125 C 4.15625 -6.066406 3.75 -5.273438 3.75 -4.203125 C 3.75 -3.367188 4 -2.734375 4.5 -2.296875 C 5.007812 -1.859375 5.722656 -1.640625 6.640625 -1.640625 Z M 6.640625 -1.640625 "/></g></g></g><g fill="#000000" fill-opacity="1"><g transform="translate(316.317336, 798.758167)"><g><path d="M 11.6875 -13.34375 L 4.78125 -13.34375 L 4.78125 0 L 2.46875 0 L 2.46875 -15.328125 L 11.6875 -15.328125 Z M 11.6875 -13.34375 "/></g></g></g><g fill="#000000" fill-opacity="1"><g transform="translate(328.576887, 798.758167)"><g/></g></g><g fill="#000000" fill-opacity="1"><g transform="translate(336.013692, 798.758167)"><g><path d="M 14.0625 -15.640625 C 14.0625 -14.328125 13.695312 -13.253906 12.96875 -12.421875 C 12.238281 -11.597656 11.203125 -11.046875 9.859375 -10.765625 L 9.859375 -10.65625 C 11.503906 -10.445312 12.722656 -9.921875 13.515625 -9.078125 C 14.304688 -8.242188 14.703125 -7.148438 14.703125 -5.796875 C 14.703125 -3.835938 14.023438 -2.332031 12.671875 -1.28125 C 11.316406 -0.238281 9.394531 0.28125 6.90625 0.28125 C 5.820312 0.28125 4.832031 0.195312 3.9375 0.03125 C 3.039062 -0.125 2.164062 -0.410156 1.3125 -0.828125 L 1.3125 -3.03125 C 2.195312 -2.59375 3.140625 -2.257812 4.140625 -2.03125 C 5.148438 -1.800781 6.101562 -1.6875 7 -1.6875 C 10.53125 -1.6875 12.296875 -3.070312 12.296875 -5.84375 C 12.296875 -8.320312 10.347656 -9.5625 6.453125 -9.5625 L 4.4375 -9.5625 L 4.4375 -11.5625 L 6.46875 -11.5625 C 8.0625 -11.5625 9.320312 -11.910156 10.25 -12.609375 C 11.1875 -13.316406 11.65625 -14.296875 11.65625 -15.546875 C 11.65625 -16.546875 11.3125 -17.328125 10.625 -17.890625 C 9.945312 -18.460938 9.019531 -18.75 7.84375 -18.75 C 6.945312 -18.75 6.101562 -18.628906 5.3125 -18.390625 C 4.519531 -18.148438 3.613281 -17.703125 2.59375 -17.046875 L 1.421875 -18.609375 C 2.265625 -19.273438 3.234375 -19.796875 4.328125 -20.171875 C 5.421875 -20.546875 6.578125 -20.734375 7.796875 -20.734375 C 9.773438 -20.734375 11.3125 -20.28125 12.40625 -19.375 C 13.507812 -18.46875 14.0625 -17.222656 14.0625 -15.640625 Z M 14.0625 -15.640625 "/></g></g></g><path stroke-linecap="butt" transform="matrix(0, 0.75, -0.75, 0, 308.842516, 667.018818)" fill="none" stroke-linejoin="miter" d="M 0.000950868 3.998354 L 34.683246 3.998354 " stroke="#000000" stroke-width="8" stroke-opacity="1" stroke-miterlimit="4"/><path stroke-linecap="round" transform="matrix(0, 0.75, -0.75, 0, 308.842516, 667.018818)" fill-opacity="1" fill="#000000" fill-rule="nonzero" stroke-linejoin="round" d="M 36.683246 -8.001647 L 52.683247 3.998354 L 36.683246 15.998355 Z M 36.683246 -8.001647 " stroke="#000000" stroke-width="8" stroke-opacity="1" stroke-miterlimit="4"/><path stroke-linecap="butt" transform="matrix(0, 0.75, -0.75, 0, 307.346238, 880.52556)" fill="none" stroke-linejoin="miter" d="M 0.00237891 3.998109 L 34.684674 3.998109 " stroke="#000000" stroke-width="8" stroke-opacity="1" stroke-miterlimit="4"/><path stroke-linecap="round" transform="matrix(0, 0.75, -0.75, 0, 307.346238, 880.52556)" fill-opacity="1" fill="#000000" fill-rule="nonzero" stroke-linejoin="round" d="M 36.684674 -8.001892 L 52.684675 3.998109 L 36.684674 15.99811 Z M 36.684674 -8.001892 " stroke="#000000" stroke-width="8" stroke-opacity="1" stroke-miterlimit="4"/><g clip-path="url(#484ac57410)"><g clip-path="url(#27ab55433b)"><g transform="matrix(1, 0, 0, 1, 193, 1160)"><g clip-path="url(#036958dceb)"><g clip-path="url(#d15869dc60)"><g clip-path="url(#dc5e75b101)"><path fill="#d9d9d9" d="M 0.480469 0.480469 L 237.164062 0.480469 L 237.164062 143.046875 L 0.480469 143.046875 Z M 0.480469 0.480469 " fill-opacity="1" fill-rule="nonzero"/></g></g></g></g></g></g><g fill="#000000" fill-opacity="1"><g transform="translate(268.352861, 1242.230608)"><g><path d="M 17.515625 0 L 14.640625 0 L 5.1875 -10.359375 L 5.1875 0 L 2.8125 0 L 2.8125 -20.453125 L 5.1875 -20.453125 L 5.1875 -10.546875 L 14.40625 -20.453125 L 17.125 -20.453125 L 8.078125 -10.515625 Z M 17.515625 0 "/></g></g></g><g fill="#000000" fill-opacity="1"><g transform="translate(285.8685, 1242.230608)"><g><path d="M 15.6875 -7.671875 C 15.6875 -5.179688 15.054688 -3.234375 13.796875 -1.828125 C 12.546875 -0.421875 10.8125 0.28125 8.59375 0.28125 C 7.21875 0.28125 6 -0.0390625 4.9375 -0.6875 C 3.875 -1.332031 3.050781 -2.253906 2.46875 -3.453125 C 1.894531 -4.660156 1.609375 -6.066406 1.609375 -7.671875 C 1.609375 -10.171875 2.234375 -12.117188 3.484375 -13.515625 C 4.734375 -14.910156 6.46875 -15.609375 8.6875 -15.609375 C 10.832031 -15.609375 12.535156 -14.894531 13.796875 -13.46875 C 15.054688 -12.039062 15.6875 -10.109375 15.6875 -7.671875 Z M 4.015625 -7.671875 C 4.015625 -5.710938 4.40625 -4.222656 5.1875 -3.203125 C 5.96875 -2.179688 7.117188 -1.671875 8.640625 -1.671875 C 10.160156 -1.671875 11.3125 -2.179688 12.09375 -3.203125 C 12.882812 -4.222656 13.28125 -5.710938 13.28125 -7.671875 C 13.28125 -9.617188 12.882812 -11.097656 12.09375 -12.109375 C 11.3125 -13.128906 10.148438 -13.640625 8.609375 -13.640625 C 7.085938 -13.640625 5.941406 -13.140625 5.171875 -12.140625 C 4.398438 -11.140625 4.015625 -9.648438 4.015625 -7.671875 Z M 4.015625 -7.671875 "/></g></g></g><g fill="#000000" fill-opacity="1"><g transform="translate(303.160475, 1242.230608)"><g><path d="M 4.78125 -15.328125 L 4.78125 -8.90625 L 13.375 -8.90625 L 13.375 -15.328125 L 15.6875 -15.328125 L 15.6875 0 L 13.375 0 L 13.375 -6.90625 L 4.78125 -6.90625 L 4.78125 0 L 2.46875 0 L 2.46875 -15.328125 Z M 4.78125 -15.328125 "/></g></g></g><g fill="#000000" fill-opacity="1"><g transform="translate(321.305161, 1242.230608)"><g><path d="M 8.9375 0.28125 C 6.664062 0.28125 4.875 -0.40625 3.5625 -1.78125 C 2.257812 -3.164062 1.609375 -5.082031 1.609375 -7.53125 C 1.609375 -10.007812 2.21875 -11.972656 3.4375 -13.421875 C 4.65625 -14.878906 6.285156 -15.609375 8.328125 -15.609375 C 10.253906 -15.609375 11.773438 -14.972656 12.890625 -13.703125 C 14.015625 -12.441406 14.578125 -10.78125 14.578125 -8.71875 L 14.578125 -7.25 L 4.015625 -7.25 C 4.054688 -5.445312 4.507812 -4.078125 5.375 -3.140625 C 6.238281 -2.210938 7.453125 -1.75 9.015625 -1.75 C 10.671875 -1.75 12.304688 -2.09375 13.921875 -2.78125 L 13.921875 -0.71875 C 13.097656 -0.363281 12.316406 -0.109375 11.578125 0.046875 C 10.847656 0.203125 9.96875 0.28125 8.9375 0.28125 Z M 8.3125 -13.65625 C 7.070312 -13.65625 6.085938 -13.253906 5.359375 -12.453125 C 4.628906 -11.648438 4.195312 -10.539062 4.0625 -9.125 L 12.078125 -9.125 C 12.078125 -10.59375 11.75 -11.710938 11.09375 -12.484375 C 10.445312 -13.265625 9.519531 -13.65625 8.3125 -13.65625 Z M 8.3125 -13.65625 "/></g></g></g><g fill="#000000" fill-opacity="1"><g transform="translate(337.366988, 1242.230608)"><g><path d="M 17.40625 5.296875 L 15.09375 5.296875 L 15.09375 0 L 2.46875 0 L 2.46875 -15.328125 L 4.78125 -15.328125 L 4.78125 -2 L 12.921875 -2 L 12.921875 -15.328125 L 15.25 -15.328125 L 15.25 -2 L 17.40625 -2 Z M 17.40625 5.296875 "/></g></g></g><g clip-path="url(#c21c5608af)"><g clip-path="url(#79e8d201b3)"><g transform="matrix(1, 0, 0, 1, 191, 933)"><g clip-path="url(#117c7bc1fc)"><g clip-path="url(#681c10919b)"><g clip-path="url(#f11a121e6c)"><path fill="#a5e7c9" d="M 0.777344 0.507812 L 237.457031 0.507812 L 237.457031 143.074219 L 0.777344 143.074219 Z M 0.777344 0.507812 " fill-opacity="1" fill-rule="nonzero"/></g></g></g></g></g></g><g fill="#000000" fill-opacity="1"><g transform="translate(269.343784, 1015.25742)"><g><path d="M 26.75 0 L 2.8125 0 L 2.8125 -20.453125 L 5.1875 -20.453125 L 5.1875 -2.15625 L 13.578125 -2.15625 L 13.578125 -20.453125 L 15.953125 -20.453125 L 15.953125 -2.15625 L 24.34375 -2.15625 L 24.34375 -20.453125 L 26.75 -20.453125 Z M 26.75 0 "/></g></g></g><g fill="#000000" fill-opacity="1"><g transform="translate(298.895299, 1015.25742)"><g><path d="M 11.890625 0 L 11.421875 -2.1875 L 11.3125 -2.1875 C 10.550781 -1.21875 9.789062 -0.5625 9.03125 -0.21875 C 8.269531 0.113281 7.320312 0.28125 6.1875 0.28125 C 4.664062 0.28125 3.472656 -0.109375 2.609375 -0.890625 C 1.742188 -1.671875 1.3125 -2.785156 1.3125 -4.234375 C 1.3125 -7.328125 3.785156 -8.953125 8.734375 -9.109375 L 11.34375 -9.1875 L 11.34375 -10.140625 C 11.34375 -11.335938 11.082031 -12.222656 10.5625 -12.796875 C 10.050781 -13.367188 9.222656 -13.65625 8.078125 -13.65625 C 6.804688 -13.65625 5.363281 -13.265625 3.75 -12.484375 L 3.03125 -14.265625 C 3.789062 -14.671875 4.617188 -14.988281 5.515625 -15.21875 C 6.410156 -15.457031 7.3125 -15.578125 8.21875 -15.578125 C 10.050781 -15.578125 11.40625 -15.171875 12.28125 -14.359375 C 13.164062 -13.546875 13.609375 -12.242188 13.609375 -10.453125 L 13.609375 0 Z M 6.640625 -1.640625 C 8.085938 -1.640625 9.222656 -2.035156 10.046875 -2.828125 C 10.867188 -3.617188 11.28125 -4.726562 11.28125 -6.15625 L 11.28125 -7.53125 L 8.96875 -7.4375 C 7.113281 -7.375 5.78125 -7.085938 4.96875 -6.578125 C 4.15625 -6.066406 3.75 -5.273438 3.75 -4.203125 C 3.75 -3.367188 4 -2.734375 4.5 -2.296875 C 5.007812 -1.859375 5.722656 -1.640625 6.640625 -1.640625 Z M 6.640625 -1.640625 "/></g></g></g><g fill="#000000" fill-opacity="1"><g transform="translate(314.817336, 1015.25742)"><g><path d="M 11.6875 -13.34375 L 4.78125 -13.34375 L 4.78125 0 L 2.46875 0 L 2.46875 -15.328125 L 11.6875 -15.328125 Z M 11.6875 -13.34375 "/></g></g></g><g fill="#000000" fill-opacity="1"><g transform="translate(327.076887, 1015.25742)"><g/></g></g><g fill="#000000" fill-opacity="1"><g transform="translate(334.513692, 1015.25742)"><g><path d="M 15.796875 -4.703125 L 12.765625 -4.703125 L 12.765625 0 L 10.546875 0 L 10.546875 -4.703125 L 0.59375 -4.703125 L 0.59375 -6.734375 L 10.3125 -20.5625 L 12.765625 -20.5625 L 12.765625 -6.8125 L 15.796875 -6.8125 Z M 10.546875 -6.8125 L 10.546875 -13.609375 C 10.546875 -14.941406 10.59375 -16.445312 10.6875 -18.125 L 10.578125 -18.125 C 10.128906 -17.226562 9.707031 -16.488281 9.3125 -15.90625 L 2.921875 -6.8125 Z M 10.546875 -6.8125 "/></g></g></g><path stroke-linecap="butt" transform="matrix(0, 0.75, -0.75, 0, 308.842516, 1100.017397)" fill="none" stroke-linejoin="miter" d="M -0.00236202 3.998354 L 34.685141 3.998354 " stroke="#000000" stroke-width="8" stroke-opacity="1" stroke-miterlimit="4"/><path stroke-linecap="round" transform="matrix(0, 0.75, -0.75, 0, 308.842516, 1100.017397)" fill-opacity="1" fill="#000000" fill-rule="nonzero" stroke-linejoin="round" d="M 36.685141 -8.001647 L 52.685143 3.998354 L 36.685141 15.998355 Z M 36.685141 -8.001647 " stroke="#000000" stroke-width="8" stroke-opacity="1" stroke-miterlimit="4"/></svg>